<?xml version="1.0" standalone="no"?>
<!DOCTYPE svg PUBLIC "-//W3C//DTD SVG 20010904//EN"
 "http://www.w3.org/TR/2001/REC-SVG-20010904/DTD/svg10.dtd">
<svg version="1.0" xmlns="http://www.w3.org/2000/svg"
 width="821.000000pt" height="1280.000000pt" viewBox="0 0 821.000000 1280.000000"
 preserveAspectRatio="xMidYMid meet">
<g transform="translate(0.000000,1280.000000) scale(0.100000,-0.100000)"
fill="#000000" stroke="none">
<path d="M3455 12790 c-38 -4 -131 -14 -205 -20 -291 -25 -571 -97 -727 -187
-139 -80 -172 -94 -284 -118 -60 -13 -119 -29 -132 -36 -12 -6 -65 -53 -117
-104 -52 -52 -122 -109 -154 -128 -111 -66 -240 -187 -314 -294 -15 -21 -28
-69 -42 -147 -20 -117 -55 -219 -128 -377 -22 -47 -61 -153 -86 -235 -24 -83
-68 -206 -96 -274 -69 -168 -86 -218 -116 -333 -32 -126 -53 -188 -69 -207 -8
-8 -29 -76 -49 -150 -19 -74 -44 -162 -56 -195 -27 -78 -38 -232 -49 -695 l-8
-365 -93 -160 c-232 -401 -322 -578 -389 -767 -16 -48 -41 -104 -55 -125 -14
-21 -43 -85 -66 -143 -53 -135 -81 -192 -130 -259 -42 -57 -90 -187 -90 -243
0 -63 44 -164 94 -216 69 -74 138 -89 297 -66 139 19 179 12 207 -39 15 -28
17 -63 17 -262 0 -272 -1 -268 120 -383 l77 -74 -8 -66 c-19 -154 2 -206 112
-281 84 -57 107 -94 101 -168 -3 -42 -11 -62 -44 -105 -72 -95 -129 -234 -140
-343 -9 -93 55 -383 107 -492 84 -171 222 -241 553 -279 78 -9 156 -22 172
-29 17 -7 62 -41 100 -74 39 -33 101 -80 138 -103 148 -93 151 -96 158 -169 3
-36 8 -70 12 -75 3 -6 16 -64 27 -130 12 -65 30 -143 41 -172 19 -52 19 -58 3
-185 -10 -84 -19 -256 -23 -472 l-6 -340 -32 -49 c-18 -26 -39 -69 -48 -95
-37 -104 1 -81 -357 -221 -265 -105 -338 -149 -496 -304 -251 -246 -360 -408
-501 -748 -92 -223 -165 -371 -258 -525 -86 -145 -156 -291 -172 -363 -20 -88
17 -39 157 208 45 78 100 169 122 201 45 67 110 200 200 411 87 205 157 334
268 495 110 158 220 275 335 353 101 69 302 165 497 237 174 64 205 78 238
109 31 28 38 42 79 155 18 53 43 106 55 118 27 29 66 29 120 2 l41 -21 -6 59
c-3 32 -11 100 -17 151 -8 68 -8 123 -1 200 6 58 11 122 10 141 -1 93 -29 -67
-44 -257 -12 -144 -25 -102 -25 80 0 118 7 216 20 308 35 241 22 277 -35 95
-21 -65 -40 -113 -46 -109 -20 12 8 193 43 275 l19 46 -49 65 c-82 109 -122
267 -85 338 17 33 22 35 83 42 36 4 80 3 100 -2 46 -13 100 -13 100 0 0 6 -4
10 -10 10 -5 0 -10 9 -10 20 0 24 32 30 76 16 16 -5 23 -2 27 13 3 13 19 24
48 31 38 11 48 9 88 -10 48 -23 76 -15 50 16 -11 14 -11 18 4 29 10 7 35 16
55 20 30 6 39 3 53 -14 18 -22 44 -28 54 -12 3 5 -4 12 -15 16 -11 3 -20 15
-20 25 0 23 135 93 199 104 25 4 59 19 80 37 65 52 189 87 206 59 3 -6 -7 -18
-24 -28 -42 -23 -39 -32 9 -32 35 0 48 7 89 45 26 25 64 51 84 58 20 6 37 17
37 22 2 21 -43 16 -79 -9 -59 -41 -137 -28 -86 14 24 20 18 40 -12 40 -37 0
-57 14 -50 34 8 20 34 20 81 1 45 -19 91 -9 155 35 49 33 105 40 115 14 5 -13
12 -11 42 12 33 26 37 27 49 11 16 -23 42 -22 55 2 15 29 12 97 -5 111 -21 17
-19 35 8 66 25 29 47 26 47 -6 0 -29 13 -31 58 -9 49 25 46 39 -9 39 -36 0
-39 2 -39 28 0 32 16 52 41 52 17 0 29 27 29 67 0 35 21 39 47 9 14 -17 23
-40 23 -62 0 -23 6 -37 16 -41 18 -7 36 15 29 35 -3 8 -8 38 -11 69 l-7 55 58
-7 58 -8 -7 29 c-14 55 -12 78 7 82 10 2 20 -4 23 -15 3 -10 16 -40 29 -68 13
-27 26 -61 30 -75 11 -43 48 -120 58 -120 21 0 -25 207 -70 314 l-25 60 22 18
c12 10 33 18 46 18 19 0 24 5 24 24 0 35 10 56 26 56 8 0 14 -1 14 -3 0 -1 18
-52 39 -112 22 -61 58 -161 80 -222 42 -119 60 -158 67 -150 7 7 -15 136 -35
202 -28 93 -35 155 -18 155 8 0 22 -11 31 -25 27 -41 38 -30 34 33 -2 31 1 59
6 62 16 9 77 -120 136 -288 32 -90 63 -169 69 -175 22 -22 12 51 -14 99 -14
26 -25 57 -25 70 0 13 -12 54 -26 91 -14 37 -35 100 -46 138 -37 126 -22 237
17 128 10 -26 46 -121 81 -210 101 -257 134 -367 193 -652 17 -79 35 -149 41
-155 14 -13 11 4 -36 243 -20 96 -44 200 -54 230 -10 31 -21 72 -25 91 -14 75
-107 375 -130 421 -14 27 -25 59 -25 72 0 23 16 47 32 47 15 0 47 -78 112
-279 121 -370 218 -777 320 -1347 35 -195 66 -358 69 -361 12 -12 27 10 27 40
0 83 -157 874 -222 1117 -17 63 -39 153 -49 200 -27 120 -90 314 -150 460 -56
136 -68 184 -49 195 18 11 34 -11 73 -105 107 -253 250 -704 302 -954 14 -66
42 -190 61 -275 19 -85 53 -241 75 -346 46 -225 66 -298 80 -290 12 8 13 2
-82 470 -108 534 -254 1062 -391 1415 -77 196 -93 218 -123 160 -9 -16 -20
-30 -25 -30 -18 0 -41 61 -38 98 3 35 5 37 34 34 30 -3 32 -1 38 43 12 74 22
64 79 -80 14 -33 60 -143 104 -245 137 -316 274 -759 328 -1060 26 -144 170
-710 193 -761 13 -28 21 -37 21 -24 2 41 -146 697 -205 913 -20 70 -55 201
-79 292 -87 326 -232 755 -310 915 -25 52 -62 156 -75 211 -8 35 3 65 18 49
10 -10 160 -348 227 -510 130 -313 218 -623 526 -1845 39 -155 42 -163 47
-124 1 17 -13 93 -32 170 -19 76 -58 243 -86 369 -89 402 -121 523 -266 997
-92 303 -138 437 -210 610 -103 249 -103 248 -80 248 14 0 59 -80 144 -255
100 -205 343 -918 398 -1165 38 -173 176 -719 200 -793 16 -48 34 -63 34 -27
0 24 -180 748 -246 990 -75 272 -142 483 -225 706 -86 231 -224 558 -270 642
-30 53 -32 92 -5 92 20 0 32 -18 56 -83 12 -31 63 -141 115 -245 163 -328 247
-555 400 -1090 138 -483 187 -634 193 -596 4 27 -3 52 -91 359 -175 608 -248
825 -409 1215 -44 107 -108 256 -143 330 -62 133 -87 210 -67 210 16 0 25 -16
145 -250 118 -231 203 -433 301 -715 30 -88 75 -213 99 -277 25 -64 58 -168
73 -230 16 -62 70 -237 121 -388 121 -359 120 -288 -2 100 -219 700 -446 1321
-581 1592 -58 115 -62 128 -40 128 20 0 74 -85 166 -262 44 -84 80 -150 80
-146 0 9 -161 371 -193 433 -14 28 -48 86 -76 130 -49 76 -63 115 -41 115 20
0 55 -47 141 -191 211 -350 388 -764 640 -1491 50 -145 106 -324 125 -398 67
-258 109 -365 182 -463 20 -28 44 -64 52 -81 12 -24 24 -32 54 -37 33 -5 54
-22 137 -110 54 -57 99 -108 99 -113 0 -5 16 -26 35 -47 43 -48 44 -42 5 26
-47 82 -18 89 62 16 84 -77 170 -112 184 -76 7 18 37 20 66 4 32 -17 31 -4 -2
35 -35 39 -60 47 -60 18 0 -51 -63 -57 -107 -9 -48 51 -83 102 -83 122 0 14 6
16 36 10 82 -15 212 -58 251 -83 168 -107 335 -246 397 -330 19 -27 63 -70 98
-97 35 -27 123 -109 196 -182 162 -164 171 -189 51 -152 -85 27 -255 35 -388
20 -337 -40 -625 -183 -933 -465 -267 -245 -366 -323 -663 -526 -219 -150
-297 -214 -441 -361 -117 -122 -206 -229 -283 -343 -85 -125 -193 -307 -223
-375 -40 -88 -119 -205 -217 -321 -44 -52 -95 -122 -113 -155 -17 -33 -51 -80
-74 -105 -51 -55 -61 -82 -37 -105 20 -21 72 -18 340 14 120 15 287 24 555 31
386 11 649 29 701 49 40 16 68 14 89 -6 39 -35 44 2 53 345 3 128 10 243 14
255 11 28 302 243 545 403 292 193 604 337 806 374 36 6 113 15 171 20 120 9
190 34 266 96 70 57 92 105 97 210 3 49 17 161 31 249 24 139 26 180 22 310
-5 171 -18 230 -78 354 -51 108 -166 226 -278 286 -55 30 -84 53 -112 91 -79
107 -396 376 -538 457 -98 55 -337 169 -424 202 -55 21 -63 30 -158 180 -86
136 -154 273 -168 341 -6 29 -22 82 -35 118 -32 85 -56 200 -56 270 0 30 9 92
20 138 11 46 24 128 30 183 5 55 24 156 41 225 16 69 33 139 37 155 7 27 16
33 83 55 116 39 215 130 283 260 51 98 67 155 75 267 5 71 12 108 23 120 9 10
25 43 35 74 40 119 141 253 370 491 185 192 295 319 420 485 120 159 165 237
250 429 96 220 131 324 149 449 8 61 27 142 41 180 118 328 168 539 160 675
-4 55 -1 106 8 145 8 32 21 144 30 249 8 105 20 232 25 283 14 129 12 199 -5
233 -28 54 -57 184 -58 255 0 38 9 106 19 150 28 118 25 313 -5 420 -35 125
-84 213 -178 322 -98 114 -160 210 -199 308 -24 60 -43 85 -143 188 -64 66
-151 144 -194 175 -43 30 -134 108 -203 173 -151 143 -294 264 -393 333 -41
28 -104 75 -139 105 -229 191 -506 346 -825 462 -310 113 -364 119 -1092 120
-291 0 -595 5 -675 10 -213 14 -575 19 -655 9z m232 -41 c27 -10 27 -11 8 -25
-11 -8 -51 -24 -90 -35 -94 -28 -113 -39 -239 -132 -123 -92 -195 -132 -209
-118 -17 17 -1 36 95 116 103 87 115 101 72 91 -29 -7 -44 -15 -208 -120 -83
-52 -136 -70 -136 -46 0 6 28 38 63 72 48 48 58 62 45 65 -25 6 -105 -40 -180
-102 -78 -64 -91 -71 -150 -80 -68 -10 -64 14 11 64 71 48 98 74 83 79 -16 5
-72 -27 -115 -65 -42 -38 -73 -40 -70 -5 4 38 -39 27 -107 -28 -69 -55 -90
-62 -90 -27 0 61 70 104 240 147 161 41 201 49 217 43 7 -3 66 7 131 21 64 15
167 38 227 52 92 21 183 32 352 43 12 0 34 -4 50 -10z m1251 -44 c14 -14 -24
-24 -164 -44 -139 -19 -155 -20 -202 -6 -59 18 -73 32 -40 40 75 17 391 25
406 10z m-564 -18 c47 -31 28 -42 -77 -42 -91 0 -119 -7 -79 -19 36 -12 160
-26 225 -26 60 0 70 -3 74 -20 3 -12 16 -21 37 -25 50 -8 605 -21 624 -14 34
13 -127 24 -325 23 -186 -1 -203 0 -203 16 0 17 25 31 85 46 17 4 143 8 282 8
174 1 256 5 263 12 9 9 -11 15 -77 24 -107 14 -125 19 -118 31 4 5 100 9 223
9 314 0 421 -19 505 -89 35 -29 63 -43 105 -51 74 -14 124 -32 129 -47 2 -6
-18 -18 -44 -27 -27 -9 -86 -38 -133 -66 -90 -52 -106 -50 -76 9 26 50 21 88
-15 107 -80 41 -226 23 -415 -51 -61 -24 -133 -47 -160 -50 -27 -4 -110 0
-187 9 -168 20 -218 14 -402 -49 -71 -24 -148 -49 -170 -54 -40 -9 -40 -9 20
-10 33 0 87 7 120 15 49 14 142 18 512 23 473 6 512 10 443 46 -40 21 -29 36
46 65 73 27 128 27 148 -1 13 -19 13 -26 1 -49 -19 -37 -73 -71 -270 -170
-173 -87 -210 -101 -370 -142 l-90 -23 69 -5 c113 -8 96 -40 -35 -65 -49 -9
-75 -19 -85 -33 -8 -11 -30 -26 -49 -32 -42 -14 -212 -17 -317 -6 -81 8 -103
-2 -50 -23 114 -45 304 -55 434 -22 42 11 145 47 230 80 416 162 592 154 766
-34 38 -41 75 -75 82 -75 8 0 1 13 -17 33 -41 43 -89 131 -103 189 -17 65 -28
73 -85 54 -50 -17 -190 -21 -264 -7 -42 8 -91 37 -98 57 -2 6 21 20 51 33 30
12 84 40 120 62 63 38 96 48 96 30 0 -9 -15 -23 -90 -90 l-35 -30 28 -1 c40 0
93 30 165 94 104 92 212 134 320 123 63 -7 182 -61 182 -83 0 -17 5 -17 -72 2
-86 22 -258 12 -258 -16 0 -4 44 -10 98 -13 237 -15 518 -147 603 -284 28 -44
39 -87 27 -104 -7 -11 -12 -9 -26 11 -30 44 -116 132 -144 146 -43 22 -50 18
-33 -22 18 -44 18 -44 3 -44 -6 0 -37 25 -69 55 -77 73 -183 125 -259 125 -32
1 -63 7 -74 15 -34 25 -138 14 -157 -17 -23 -37 70 -213 174 -328 28 -30 58
-73 68 -95 27 -60 62 -89 107 -88 20 1 60 -5 87 -12 28 -8 95 -19 150 -24 112
-10 194 -37 244 -79 46 -38 35 -55 -30 -46 -55 7 -58 2 -39 -66 15 -53 1 -61
-87 -50 -40 5 -81 6 -90 3 -10 -4 -38 -28 -63 -53 -64 -66 -181 -122 -256
-124 -31 0 -59 4 -61 9 -2 6 26 23 61 38 78 34 215 145 194 158 -16 11 -69 11
-84 1 -6 -4 -17 -20 -25 -37 -24 -52 -84 -73 -241 -84 -76 -6 -148 -16 -160
-22 l-22 -12 27 -23 c61 -52 263 -92 382 -75 92 13 185 60 226 114 57 75 89
88 89 38 0 -40 -66 -122 -146 -179 -35 -25 -62 -48 -60 -50 4 -4 81 36 132 69
29 18 33 18 48 4 14 -14 17 -12 35 23 27 52 45 67 60 48 10 -12 10 -28 1 -73
-13 -63 -28 -80 -177 -211 -66 -57 -93 -95 -79 -109 10 -10 92 24 162 67 38
24 96 58 129 77 33 19 69 43 81 54 45 42 62 11 38 -70 -13 -45 -28 -67 -80
-118 -65 -64 -112 -84 -101 -43 4 17 -1 17 -54 -11 -93 -47 -216 -72 -329 -67
-113 5 -141 16 -227 94 l-63 55 14 -39 c39 -109 108 -199 214 -279 115 -87 87
-126 -45 -64 -34 17 -65 26 -67 22 -8 -13 34 -90 61 -111 19 -15 41 -20 87
-20 76 0 142 -30 169 -77 10 -18 22 -59 27 -92 5 -34 18 -74 29 -90 29 -40
114 -80 197 -92 137 -20 179 -29 243 -56 96 -39 243 -44 364 -13 69 18 91 20
100 11 16 -17 -17 -43 -91 -72 -49 -20 -76 -23 -197 -23 -130 -1 -148 2 -249
32 -188 56 -289 66 -256 27 7 -8 25 -15 40 -15 15 0 38 -9 51 -19 22 -18 24
-28 27 -125 l4 -106 44 -31 c52 -36 56 -55 12 -67 -30 -8 -34 -12 -39 -58 -4
-27 -16 -73 -28 -103 -30 -74 -99 -171 -122 -171 -25 0 -24 17 6 84 14 31 25
59 25 62 0 4 -19 -20 -43 -52 -91 -123 -223 -219 -357 -258 -78 -23 -210 -32
-240 -16 -22 12 -22 14 -6 25 9 7 53 18 96 24 44 7 104 19 133 28 147 43 271
151 324 282 l14 36 -25 -30 c-14 -16 -25 -33 -26 -37 0 -4 -34 -35 -76 -68
-83 -66 -209 -131 -294 -151 -123 -30 -345 -5 -357 40 -3 14 -18 20 -52 25
-33 4 -70 21 -124 57 -88 57 -101 85 -36 74 55 -9 44 8 -19 31 -63 23 -79 38
-62 58 7 9 18 16 25 16 6 0 34 11 61 25 48 24 50 24 84 8 92 -45 468 -17 538
40 22 17 8 17 -57 -3 -78 -25 -228 -27 -333 -5 -40 9 -127 20 -193 25 -66 5
-144 16 -173 24 -81 22 -209 85 -290 143 -93 67 -97 69 -161 77 -66 9 -112 31
-105 50 3 8 15 17 27 19 15 3 12 5 -10 6 -18 0 -48 -7 -68 -16 -32 -15 -40
-16 -78 -3 -30 11 -42 21 -42 34 0 16 8 20 52 21 60 2 113 21 113 41 0 14 -45
41 -142 84 -67 29 -183 119 -286 220 -40 39 -72 67 -72 63 0 -5 16 -32 35 -60
39 -58 173 -171 271 -228 65 -38 76 -57 36 -63 -49 -7 -214 110 -342 243 -179
186 -193 200 -197 188 -6 -16 8 -40 56 -98 44 -53 72 -105 65 -117 -10 -16
-57 30 -145 145 -132 172 -232 239 -308 208 -23 -10 -43 -8 -109 8 -173 45
-330 11 -457 -99 -26 -22 -64 -49 -85 -60 -22 -11 -56 -40 -77 -65 -67 -80
-81 -52 -35 74 27 73 28 74 72 86 25 6 84 34 131 63 85 51 182 92 223 92 16 1
14 4 -11 15 -35 15 -40 24 -21 43 9 9 9 15 0 24 -9 9 -25 9 -69 0 -81 -17
-157 -57 -216 -113 -28 -26 -54 -46 -59 -43 -4 3 -8 23 -8 45 0 139 -94 -117
-119 -326 -6 -49 -11 -119 -11 -155 0 -121 -33 -115 -72 13 -17 58 -20 88 -16
192 l4 125 66 132 c47 94 80 147 115 182 135 138 322 200 433 144 76 -38 58
-98 -25 -82 -39 7 -156 -11 -200 -31 -26 -12 -9 -13 140 -9 166 5 215 0 289
-31 31 -13 8 18 -49 64 -27 23 -59 60 -70 84 -18 37 -27 44 -85 65 -36 13 -76
34 -90 46 -14 13 -34 28 -45 33 -88 44 -251 -3 -322 -92 -25 -31 -116 -220
-145 -300 -15 -39 -30 -49 -45 -28 -18 23 -16 47 7 139 24 92 72 194 133 279
65 90 94 99 332 101 237 2 222 1 207 16 -8 8 -48 12 -113 12 l-101 1 -32 38
c-26 32 -37 37 -71 37 -22 -1 -74 -14 -115 -30 -82 -33 -100 -29 -84 17 15 43
127 95 207 97 34 0 77 -3 95 -7 54 -14 37 11 -20 28 -90 26 -156 20 -239 -22
-40 -21 -77 -47 -83 -58 -6 -11 -30 -50 -54 -87 -67 -104 -95 -85 -48 31 69
171 163 232 376 247 55 4 100 11 100 15 0 27 -112 44 -188 30 -125 -25 -246
-117 -316 -243 -43 -78 -63 -98 -72 -74 -10 26 14 104 61 202 53 109 80 133
227 195 55 23 102 49 106 57 3 9 -4 23 -19 35 -56 45 -217 -4 -306 -93 -39
-38 -52 -65 -67 -132 -7 -32 -46 -61 -69 -53 -8 4 -20 19 -27 35 -36 88 113
255 288 320 52 20 112 29 286 45 79 8 76 19 -8 34 -174 32 -304 4 -430 -93
-80 -61 -106 -69 -106 -33 0 51 102 157 195 202 92 45 159 56 280 49 62 -3
124 -13 142 -21 17 -8 42 -13 55 -11 19 4 13 9 -34 31 -32 15 -79 32 -104 38
-95 24 -287 -7 -399 -63 -21 -11 -65 -45 -96 -75 -79 -75 -108 -53 -51 38 38
59 102 113 182 152 l65 32 170 -1 c155 0 178 -3 258 -27 88 -27 137 -34 137
-19 0 23 -167 57 -350 72 -162 13 -190 18 -190 34 0 21 47 26 239 27 184 1
297 10 271 22 -8 4 -92 13 -187 21 -94 7 -176 17 -182 20 -21 13 -11 35 22 45
56 18 209 28 307 19 104 -8 202 -34 385 -100 l120 -43 180 0 c161 0 186 2 235
22 30 11 64 24 75 28 43 16 -8 16 -68 1 -74 -19 -247 -21 -364 -5 -43 5 -127
24 -186 40 -60 17 -157 40 -215 52 -81 17 -108 26 -110 39 -5 24 87 31 300 25
154 -4 181 -7 244 -31 84 -30 344 -60 344 -38 0 16 -63 33 -156 42 -55 5 -144
19 -199 30 -75 16 -151 23 -301 27 -186 5 -206 4 -261 -15 -77 -27 -188 -34
-188 -12 0 20 83 64 180 96 130 41 259 57 430 51 176 -6 268 -27 390 -88 59
-29 92 -40 116 -37 45 4 42 18 -8 46 -139 76 -587 129 -746 87 -78 -20 -97
-19 -97 5 0 66 364 141 665 137 127 -2 155 -5 179 -20z m-1734 -277 c0 -5 -29
-23 -65 -39 -36 -17 -78 -39 -94 -50 -16 -12 -39 -21 -51 -21 -32 0 -22 40 17
62 73 43 193 73 193 48z m-351 -14 c9 -10 9 -20 2 -34 -18 -34 -188 -202 -205
-202 -26 0 -19 33 22 96 84 129 149 179 181 140z m661 -48 c0 -7 -18 -23 -40
-36 -22 -12 -51 -39 -64 -60 -13 -21 -31 -44 -40 -52 -10 -7 -28 -34 -41 -59
-13 -25 -51 -77 -84 -115 -33 -38 -66 -85 -73 -105 -20 -55 -15 -509 6 -620 9
-46 16 -106 16 -135 0 -49 5 -62 53 -128 14 -21 15 -30 6 -57 -8 -24 -8 -39 1
-60 15 -36 2 -64 -42 -91 l-31 -19 26 -12 c17 -8 40 -38 67 -89 22 -43 58
-102 80 -131 22 -30 39 -58 37 -64 -28 -77 -38 -146 -29 -190 10 -49 7 -75 -9
-75 -5 0 -34 20 -65 45 -53 44 -94 58 -94 33 0 -7 38 -40 84 -72 85 -59 111
-92 99 -122 -5 -13 -15 -15 -49 -10 -70 9 -97 -9 -46 -32 15 -6 70 -48 122
-92 52 -44 100 -80 106 -80 7 0 14 7 18 15 10 28 35 15 57 -27 12 -24 44 -67
71 -97 56 -61 98 -137 98 -177 0 -21 -4 -25 -17 -21 -62 20 -66 20 -61 6 2 -8
18 -16 34 -17 35 -4 60 -26 84 -73 25 -49 46 -63 88 -62 51 2 55 -4 30 -37
-40 -55 -35 -137 17 -272 11 -28 -22 -22 -64 11 -43 34 -79 53 -90 49 -13 -5
171 -169 209 -187 38 -18 49 -46 30 -81 -10 -19 -17 -21 -56 -15 -35 5 -43 4
-38 -8 3 -8 16 -20 30 -28 35 -18 47 -44 34 -69 -12 -23 -28 -21 -93 12 -22
11 -41 18 -43 15 -2 -2 23 -27 56 -56 48 -42 62 -62 75 -103 22 -76 29 -193
16 -290 -21 -161 -55 -232 -113 -242 -27 -5 -77 -51 -78 -72 0 -18 53 -62 105
-86 39 -17 74 -23 158 -26 165 -6 236 23 317 133 32 43 50 57 96 75 32 11 69
29 84 40 43 31 77 107 114 260 41 168 66 215 148 278 43 33 68 46 103 49 36 5
50 12 66 34 22 32 50 37 69 14 20 -24 24 -125 6 -175 -15 -43 -14 -45 7 -68
22 -24 22 -24 2 -38 -31 -23 -25 -102 14 -177 36 -70 37 -79 12 -121 -11 -17
-29 -61 -41 -98 -29 -90 -67 -140 -131 -172 -67 -33 -156 -122 -130 -131 9 -3
25 -19 34 -35 36 -60 110 -77 246 -55 84 14 96 14 117 0 21 -14 26 -12 72 24
55 44 112 111 130 154 13 31 32 28 32 -5 0 -30 -57 -132 -102 -183 -58 -66
-29 -55 54 21 40 37 99 83 131 104 31 20 70 55 85 77 15 23 41 61 58 85 17 23
59 95 94 158 59 107 63 121 72 205 5 50 10 169 11 265 2 156 0 183 -20 245
-26 83 -83 173 -144 231 -65 60 -172 123 -235 137 l-56 13 27 32 c28 34 26 52
-6 52 -33 0 -21 30 18 47 128 53 362 -79 446 -252 25 -51 54 -92 87 -122 57
-52 80 -106 61 -142 -7 -11 -16 -81 -21 -155 -19 -266 -136 -611 -251 -737
-22 -24 -54 -68 -71 -98 -42 -73 -121 -149 -197 -190 -53 -28 -66 -40 -82 -78
-43 -100 -128 -230 -186 -284 -164 -151 -280 -150 -402 6 -28 36 -56 65 -61
65 -6 0 -10 -16 -10 -35 0 -28 -4 -35 -19 -35 -11 0 -23 5 -26 10 -3 6 -10 10
-16 10 -17 0 -9 -35 21 -85 46 -78 40 -96 -22 -70 -23 9 -23 -6 -2 -62 9 -24
14 -46 10 -50 -10 -10 -83 66 -131 137 -24 36 -83 106 -131 155 -87 91 -93 91
-18 0 22 -27 60 -78 82 -112 23 -34 55 -71 72 -83 16 -12 30 -29 30 -39 0 -10
8 -29 19 -42 39 -50 133 -245 129 -269 -3 -21 -9 -15 -58 46 -31 38 -64 70
-74 72 -15 3 -8 -15 33 -91 64 -118 97 -205 106 -279 6 -50 5 -58 -9 -58 -9 0
-16 3 -16 8 0 22 -212 404 -284 511 -127 189 -418 552 -453 566 -23 8 -1 -23
118 -165 200 -241 367 -478 502 -713 70 -121 114 -254 108 -324 -2 -22 -29
-14 -37 10 -12 41 -124 258 -186 361 -94 156 -248 380 -341 496 -132 165 -304
347 -269 284 6 -11 54 -71 108 -134 225 -268 417 -532 476 -653 23 -45 71
-134 109 -197 66 -113 129 -270 129 -324 0 -52 -29 -24 -86 82 -106 200 -267
476 -337 582 -137 204 -384 520 -407 520 -19 0 -9 -20 38 -77 27 -32 75 -94
107 -138 32 -44 89 -116 125 -160 143 -169 254 -341 365 -564 104 -209 166
-381 137 -381 -17 0 -42 38 -127 199 -99 186 -189 337 -317 528 -209 314 -438
587 -438 523 0 -5 44 -62 98 -127 218 -262 434 -568 517 -732 86 -173 215
-499 215 -547 0 -76 -83 44 -115 165 -52 203 -441 814 -681 1072 -44 47 -89
98 -100 114 -12 17 -25 27 -30 22 -4 -4 13 -29 38 -55 53 -54 358 -472 422
-577 162 -266 273 -485 326 -642 30 -86 34 -111 34 -203 l1 -105 -32 -3 c-48
-5 -65 10 -80 69 -46 179 -281 619 -516 967 -49 73 -147 202 -218 286 -125
151 -149 176 -149 159 0 -14 30 -54 95 -128 34 -38 70 -85 79 -102 9 -18 35
-55 59 -82 49 -58 76 -98 112 -166 15 -27 73 -120 130 -205 83 -124 128 -207
224 -410 66 -140 129 -285 142 -322 25 -79 21 -121 -14 -116 -17 2 -26 16 -43
68 -41 128 -201 455 -335 686 -55 96 -234 360 -250 370 -6 3 -15 2 -21 -4 -7
-7 9 -41 55 -109 102 -153 276 -438 328 -538 120 -228 237 -595 190 -595 -20
0 -19 -3 -177 365 -94 219 -321 617 -378 664 -34 28 -16 -26 40 -120 152 -255
335 -625 382 -769 27 -83 54 -209 46 -221 -18 -29 -36 3 -109 186 -88 223
-305 648 -350 685 -8 6 -19 28 -26 48 -6 20 -22 48 -34 62 -13 14 -40 57 -61
95 -51 94 -73 125 -90 125 -22 0 -17 -24 12 -51 14 -13 35 -42 46 -64 42 -84
192 -342 226 -390 48 -67 86 -152 175 -390 96 -257 119 -329 115 -357 -7 -48
-32 -23 -64 63 -50 131 -182 428 -204 457 -11 13 -20 33 -20 43 0 24 -89 195
-146 280 -24 36 -44 70 -44 76 0 6 -11 24 -24 40 -13 15 -33 47 -44 69 -22 42
-46 61 -58 43 -3 -5 9 -26 26 -47 18 -20 59 -86 92 -147 33 -60 86 -155 116
-210 90 -161 98 -180 170 -385 107 -303 120 -367 75 -384 -25 -10 -39 12 -53
84 -6 36 -33 121 -60 190 -26 69 -51 136 -55 150 -28 96 -228 480 -251 480
-18 0 -17 -1 91 -230 147 -310 202 -465 226 -634 12 -84 9 -116 -10 -116 -14
0 -47 66 -56 110 -8 44 -51 169 -69 207 -8 15 -19 51 -25 78 -7 28 -25 71 -40
97 -16 25 -32 61 -36 80 -4 18 -16 44 -26 57 -11 13 -19 29 -19 36 0 19 -60
145 -86 180 -12 17 -27 47 -34 68 -12 39 -40 51 -40 18 0 -11 4 -22 9 -25 19
-12 193 -381 221 -471 7 -22 23 -61 36 -87 13 -26 24 -56 24 -66 0 -11 10 -41
21 -68 27 -60 34 -249 10 -249 -14 0 -22 20 -70 179 -25 82 -50 121 -67 104
-11 -11 15 -99 39 -132 19 -27 22 -44 22 -131 0 -102 -12 -145 -40 -145 -17 0
-22 19 -30 119 -3 48 -15 96 -34 140 -15 36 -31 74 -34 84 -4 9 -14 17 -23 17
-12 0 -15 -6 -10 -22 14 -52 46 -253 46 -294 0 -31 -5 -46 -16 -51 -22 -8 -34
8 -40 53 -10 76 -14 84 -36 84 -20 0 -21 -3 -14 -94 5 -72 4 -97 -6 -105 -71
-59 -79 -63 -92 -52 -8 7 -19 42 -26 78 -6 36 -18 79 -26 94 -8 15 -14 41 -14
58 0 16 -5 33 -10 36 -21 13 -23 -30 -7 -130 21 -130 22 -164 1 -172 -23 -9
-29 7 -54 133 -22 110 -40 157 -56 141 -4 -4 0 -71 9 -148 17 -150 13 -189
-22 -189 -17 0 -20 10 -26 67 -15 150 -37 171 -46 44 -4 -54 -11 -86 -20 -92
-21 -13 -39 18 -39 67 0 27 -7 50 -20 65 l-20 24 -24 -27 c-17 -19 -25 -43
-31 -95 -7 -68 -19 -98 -36 -87 -5 3 -9 20 -9 37 0 40 -10 77 -20 77 -9 0 -20
-32 -40 -107 -6 -24 -15 -43 -20 -43 -4 0 -12 27 -17 60 -12 89 -36 83 -48
-11 -6 -47 -55 -121 -71 -106 -4 4 -2 37 5 73 8 36 11 67 8 70 -2 3 -17 -26
-33 -63 -30 -74 -53 -108 -65 -96 -4 5 -9 31 -11 58 l-3 50 -41 -75 c-44 -82
-74 -102 -74 -51 0 16 4 40 9 53 16 44 22 80 12 74 -5 -4 -30 -44 -55 -89 -45
-83 -80 -126 -93 -113 -4 3 -1 21 5 39 14 39 16 77 3 77 -5 0 -11 -14 -15 -31
-3 -17 -19 -47 -35 -67 -15 -21 -40 -55 -54 -78 -24 -39 -29 -42 -121 -64
-123 -29 -199 -25 -290 18 -68 32 -160 109 -169 141 -9 35 8 45 42 25 21 -13
34 -15 41 -8 18 18 0 42 -48 64 -63 29 -73 43 -65 96 5 41 3 46 -42 96 -62 68
-85 119 -85 188 0 162 176 317 405 356 104 18 187 10 318 -31 81 -26 137 -32
137 -15 0 6 -10 10 -22 10 -32 0 -81 32 -113 75 -35 45 -72 65 -122 65 -21 0
-60 7 -87 15 -27 8 -65 15 -85 15 -47 1 -115 32 -136 63 -15 23 -15 28 0 56 9
18 58 63 110 101 68 50 95 76 95 91 0 19 -4 21 -38 17 -21 -3 -81 -22 -134
-42 -121 -45 -217 -56 -268 -29 -41 21 -47 53 -12 68 24 11 29 24 10 27 -7 0
-17 2 -23 3 -5 2 -16 3 -22 4 -25 2 -13 44 22 76 95 90 346 92 435 4 16 -17
53 -37 82 -45 66 -20 108 -63 108 -110 0 -25 8 -43 30 -64 17 -17 37 -30 44
-30 20 0 87 -79 120 -141 30 -56 64 -99 78 -99 13 0 9 40 -17 150 -13 58 -49
228 -80 378 -87 433 -108 504 -211 697 -47 91 -66 137 -74 189 -13 83 -63 216
-95 254 -13 15 -26 44 -30 63 -16 85 -40 76 -40 -14 0 -49 -3 -62 -16 -65 -21
-4 -24 11 -40 161 -11 97 -11 128 1 180 7 34 16 152 20 262 8 221 15 253 75
335 20 27 43 70 52 95 8 26 26 53 40 62 13 9 35 37 48 62 15 31 49 68 97 108
92 75 111 85 151 81 27 -2 32 -7 32 -28 0 -20 -7 -27 -35 -36 -43 -14 -46 -38
-5 -42 17 -2 42 -8 57 -13 21 -9 52 -5 145 16 65 15 131 32 147 38 15 6 76 58
135 117 82 81 119 110 156 124 101 38 303 216 245 216 -19 0 -10 21 29 63 22
24 58 76 81 117 23 41 54 88 69 103 l26 29 -28 24 c-43 37 -71 32 -90 -16 -9
-23 -28 -47 -47 -59 -74 -44 -249 -34 -402 23 -49 18 -88 29 -88 25 0 -23 42
-47 91 -54 119 -16 159 -60 71 -78 -52 -10 -127 4 -202 39 -57 26 -130 88
-130 110 0 26 -44 44 -105 45 -73 0 -129 18 -133 42 -3 15 8 17 117 17 117 0
121 1 121 21 0 19 4 21 36 16 20 -3 75 -28 123 -55 47 -27 118 -62 156 -77 73
-29 165 -45 165 -28 0 6 -24 13 -52 16 -78 9 -268 110 -268 143 0 21 32 17
102 -11 66 -27 84 -27 43 -1 -28 18 -33 51 -9 60 9 3 33 6 54 6 51 0 70 8 70
30 0 21 -27 30 -96 30 -50 0 -96 21 -81 37 5 4 31 15 59 23 61 18 75 40 26 40
-62 1 -117 20 -188 66 -103 66 -189 103 -320 135 -93 23 -118 33 -133 53 -11
16 -28 26 -43 26 -21 0 -23 -3 -17 -30 5 -27 3 -30 -19 -30 -13 0 -80 -16
-149 -35 -68 -19 -155 -39 -193 -45 -78 -12 -124 -33 -185 -84 -24 -20 -47
-36 -52 -36 -5 0 -7 -11 -3 -24 7 -31 -27 -54 -46 -31 -14 17 -4 55 14 55 10
0 12 12 9 43 -6 55 25 179 77 307 68 167 249 562 266 581 35 39 184 93 327
120 36 6 57 15 54 22 -10 31 -190 32 -267 1 -51 -21 -67 -14 -79 33 -13 48 -1
103 24 117 11 5 43 25 72 44 80 52 129 63 328 72 207 10 185 7 185 19 0 15
-108 34 -195 34 -60 1 -110 -7 -198 -32 -66 -18 -126 -30 -134 -27 -18 7 -10
52 19 109 12 24 23 77 29 135 9 89 14 106 66 207 93 183 205 333 301 404 27
20 69 51 93 70 56 43 359 193 464 230 160 57 454 129 533 130 27 1 42 -3 42
-11z m-957 -170 c9 -27 -6 -38 -49 -38 -32 0 -44 4 -44 15 0 29 83 50 93 23z
m4260 -12 c53 -19 107 -63 107 -88 0 -19 -4 -20 -52 -14 -52 7 -52 7 -34 -13
11 -12 67 -45 126 -76 115 -58 143 -81 117 -91 -22 -8 -120 13 -193 42 -97 38
-110 29 -43 -30 48 -44 59 -49 224 -93 152 -40 274 -95 328 -146 68 -64 31
-104 -41 -44 -55 46 -147 81 -319 123 -79 19 -159 40 -177 48 -50 21 -115 84
-140 136 -13 25 -35 67 -49 94 -30 55 -32 73 -15 112 22 48 90 65 161 40z
m-4523 -182 c0 -14 -11 -36 -25 -50 -21 -21 -29 -23 -40 -14 -16 14 -7 39 28
77 23 26 37 22 37 -13z m5359 -228 c38 -20 57 -44 44 -57 -7 -7 -22 -1 -47 21
-51 45 -50 63 3 36z m154 -128 c57 -39 71 -58 42 -58 -44 0 -144 77 -130 99 7
13 8 12 88 -41z m-309 -146 c179 -85 283 -199 331 -364 19 -68 17 -133 -5
-133 -9 0 -26 28 -45 76 -16 41 -38 86 -48 100 l-18 24 6 -25 c14 -62 16 -197
3 -239 -19 -61 -35 -63 -43 -4 -21 170 -36 238 -60 268 -15 18 -15 15 -9 -45
26 -239 -28 -424 -167 -563 -72 -72 -147 -114 -252 -141 -116 -30 -118 13 -2
62 232 98 250 112 260 200 9 71 29 105 56 97 12 -4 19 -2 20 7 1 7 3 29 4 48
2 19 6 76 10 125 l6 90 -29 -32 c-27 -31 -62 -44 -62 -23 0 5 11 39 25 76 14
36 25 85 25 109 0 36 -5 46 -37 72 -21 16 -48 35 -60 42 -13 6 -23 16 -23 22
0 6 -14 28 -31 49 l-31 39 37 50 c20 28 41 51 47 51 5 0 47 -17 92 -38z m250
-52 c25 -31 26 -60 0 -60 -15 0 -44 49 -44 75 0 23 16 18 44 -15z m271 -130
c82 -56 222 -230 250 -311 19 -52 66 -339 59 -351 -3 -5 -21 5 -40 22 -50 44
-64 40 -64 -17 0 -27 7 -79 15 -118 19 -91 19 -107 -4 -147 -11 -18 -25 -53
-32 -78 -24 -79 -139 -171 -139 -110 0 11 11 48 23 82 32 84 40 141 27 189
-19 70 -39 45 -66 -86 -8 -38 -21 -88 -30 -110 -15 -39 -69 -105 -86 -105 -12
0 -10 38 2 45 22 14 10 31 -20 27 -48 -7 -48 20 -3 86 45 65 56 89 43 97 -15
9 -72 -47 -90 -89 -34 -80 -142 -156 -222 -156 -67 0 -60 17 29 79 34 24 74
61 89 83 32 45 53 136 54 224 0 74 23 155 54 190 23 27 46 26 46 -2 0 -27 19
-14 31 23 7 23 10 70 7 130 -5 84 -9 102 -46 176 -22 45 -37 86 -32 90 26 28
85 -40 117 -134 20 -61 25 -242 9 -385 l-9 -82 33 -7 c35 -8 46 -1 52 30 3 15
11 19 33 18 16 -1 34 2 41 8 35 29 21 191 -23 269 -41 73 -15 105 45 55 39
-33 56 -33 48 1 -12 45 -79 134 -195 258 -61 66 -111 125 -111 131 0 32 34 24
105 -25z m-654 -94 c-14 -16 -41 -11 -41 8 0 7 5 17 12 24 19 19 46 -11 29
-32z m-3916 -86 c8 -25 -25 -85 -46 -85 -10 0 -14 11 -13 37 2 59 45 94 59 48z
m4365 -309 c0 -38 -14 -61 -37 -61 -18 0 -16 44 2 81 20 37 35 29 35 -20z
m-425 -21 c9 -15 -31 -85 -72 -126 -44 -44 -133 -86 -230 -108 -139 -31 -234
-13 -308 58 -78 74 -58 87 96 61 161 -27 242 -11 395 78 79 47 108 55 119 37z
m-5600 -76 c0 -10 -8 -20 -17 -22 -18 -3 -26 27 -11 42 12 11 28 0 28 -20z
m6715 -107 c0 -22 -4 -28 -17 -25 -19 3 -29 47 -18 76 6 15 8 15 21 -2 8 -11
14 -33 14 -49z m-900 16 c0 -24 -48 -101 -70 -113 -49 -26 -31 52 26 114 26
27 44 27 44 -1z m830 -112 c5 -20 10 -65 10 -101 0 -87 14 -131 50 -163 24
-22 30 -35 30 -70 0 -40 -13 -77 -24 -67 -2 3 -27 50 -55 105 -43 84 -51 109
-51 155 0 30 -7 84 -15 119 -12 48 -13 67 -4 78 17 19 46 -8 59 -56z m-4141 9
c178 -50 352 -168 426 -290 40 -66 245 -268 326 -321 71 -47 135 -70 327 -118
87 -21 203 -56 257 -77 55 -20 145 -51 199 -68 55 -17 101 -37 103 -43 10 -28
-42 -37 -212 -38 l-170 0 -140 54 c-223 85 -336 95 -520 48 l-50 -13 -7 -50
c-3 -27 -14 -64 -23 -81 -9 -18 -21 -72 -27 -120 -17 -136 12 -208 66 -168
106 78 234 131 259 106 10 -11 6 -17 -17 -35 -120 -88 -151 -113 -151 -121 0
-6 20 -12 45 -15 85 -9 62 -48 -75 -127 -80 -47 -200 -150 -210 -183 -7 -23
-38 -31 -77 -19 -18 5 -33 7 -35 5 -2 -1 -10 -52 -18 -112 -25 -177 -45 -275
-66 -316 -27 -54 -43 -50 -35 10 16 111 25 293 16 314 -8 21 -9 21 -9 3 -2
-41 -22 -95 -36 -95 -20 0 -19 34 5 205 26 182 26 226 0 243 -33 20 -23 54 40
142 33 46 60 87 60 92 0 16 -61 -25 -86 -57 -70 -92 -133 -298 -140 -465 -7
-136 7 -115 35 55 12 71 25 133 30 138 20 20 31 -5 26 -56 -37 -392 -73 -563
-151 -719 -26 -52 -43 -73 -76 -92 -98 -57 -137 -38 -74 35 78 92 113 258 123
583 4 147 3 217 -4 213 -6 -4 -16 -40 -22 -82 -14 -83 -25 -101 -35 -54 -14
74 25 221 105 388 27 57 49 107 49 111 0 4 -11 5 -25 2 -41 -7 -30 21 35 95
53 59 58 68 40 71 -11 2 -44 -4 -73 -13 -116 -38 -163 -93 -194 -229 -17 -74
-41 -111 -59 -93 -4 3 -13 29 -20 57 -11 43 -11 58 3 108 28 103 28 100 0 95
-32 -6 -41 10 -27 51 15 45 70 101 131 131 52 27 66 41 24 25 -37 -14 -80 -37
-121 -65 -28 -19 -40 -22 -50 -14 -21 17 -18 25 28 75 58 63 96 80 228 99 63
9 137 21 164 27 72 15 39 28 -74 28 -105 0 -143 12 -97 29 16 6 38 11 50 11
12 0 28 4 36 9 29 19 -18 26 -174 27 -88 0 -164 1 -169 2 -15 3 18 35 52 49
48 20 358 46 402 33 46 -13 47 -13 53 11 5 18 12 21 41 17 20 -2 36 -1 36 3 0
4 -45 30 -100 58 -97 49 -104 51 -184 51 -72 0 -91 -4 -142 -30 -32 -16 -92
-56 -133 -90 -41 -33 -78 -60 -82 -60 -11 0 -12 43 -1 56 5 5 19 27 32 48 l23
39 -36 -7 c-29 -5 -37 -4 -37 8 0 21 76 82 140 113 30 15 66 35 79 45 35 26
68 23 251 -27 91 -25 174 -45 185 -44 11 0 -11 15 -49 34 -37 18 -85 49 -105
69 -23 22 -52 38 -80 45 -24 5 -55 21 -70 35 -39 37 -93 56 -163 56 -52 0 -75
-6 -132 -35 -39 -19 -84 -35 -102 -35 -33 0 -60 22 -49 40 3 5 2 10 -4 10 -18
0 -117 -107 -142 -154 -36 -69 -70 -53 -49 23 33 125 215 270 395 315 74 19
183 14 284 -14z m3376 0 c10 -17 -46 -108 -92 -151 -55 -50 -170 -106 -250
-121 -59 -11 -62 -10 -149 27 -98 41 -124 59 -124 85 0 16 15 17 163 16 187
-1 207 4 344 100 78 55 97 62 108 44z m853 -12 c13 -13 17 -100 5 -111 -16
-17 -33 19 -33 69 0 55 6 64 28 42z m-768 -34 c0 -27 -20 -54 -40 -54 -24 0
-25 13 -4 45 18 28 44 33 44 9z m-3545 -144 c4 -6 -8 -10 -30 -10 -22 0 -34 4
-30 10 3 6 17 10 30 10 13 0 27 -4 30 -10z m-425 -56 c0 -25 -40 -84 -56 -84
-20 0 -17 29 6 68 21 34 50 43 50 16z m4457 -50 c-7 -68 -35 -109 -50 -71 -9
23 33 127 51 127 2 0 2 -25 -1 -56z m-1091 26 c8 0 28 -14 44 -31 28 -31 30
-32 89 -25 57 7 63 5 85 -19 18 -19 40 -28 88 -36 34 -5 77 -16 93 -23 50 -24
160 -56 189 -56 21 0 27 -4 24 -17 -8 -41 -290 -10 -408 43 -39 18 -80 27
-140 31 -109 7 -130 19 -130 76 0 46 16 71 38 62 8 -3 20 -5 28 -5z m1222 -46
c9 -34 11 -83 7 -163 -6 -111 -5 -115 19 -140 19 -21 27 -46 39 -131 19 -130
12 -176 -45 -290 -53 -105 -170 -228 -264 -278 -108 -56 -265 -80 -272 -40 -2
12 11 20 50 32 46 14 132 55 118 55 -3 1 -27 -6 -54 -14 -66 -20 -135 -20
-143 1 -8 23 6 32 78 52 122 34 286 173 352 300 63 120 94 245 65 255 -16 5
-13 353 3 394 13 36 32 23 47 -33z m236 -84 c-15 -85 -74 -173 -74 -111 0 33
31 155 43 169 18 23 38 -15 31 -58z m-3670 -1 c28 -33 33 -54 15 -64 -13 -9
-43 18 -70 62 -39 63 3 65 55 2z m-530 -93 c32 -21 34 -46 4 -46 -39 0 -171
45 -176 59 -7 20 138 10 172 -13z m3854 -25 c2 -32 -4 -58 -25 -100 -36 -73
-162 -200 -227 -230 -99 -45 -278 -63 -311 -30 -15 15 13 29 65 29 53 0 157
23 172 38 6 6 -20 8 -79 5 -100 -6 -180 10 -264 53 -69 34 -54 47 41 34 154
-20 274 -9 355 33 22 11 65 28 95 37 52 16 57 20 90 82 60 112 83 124 88 49z
m-823 -151 c0 -7 -5 -15 -10 -17 -16 -5 -49 23 -41 35 9 14 51 -1 51 -18z
m-5177 -1 c-5 -16 -171 -77 -231 -85 -28 -3 -67 -15 -85 -25 -69 -40 -85 -12
-24 43 41 37 90 54 192 67 98 13 152 13 148 0z m6281 -85 c24 -82 26 -107 9
-102 -22 7 -40 59 -45 127 -7 83 7 73 36 -25z m-1121 -10 c31 -30 90 -74 131
-97 132 -75 94 -92 -51 -23 -156 75 -211 124 -189 172 14 31 30 24 109 -52z
m-4968 26 c31 -19 -10 -33 -124 -43 -171 -14 -235 4 -128 37 53 16 229 21 252
6z m118 -50 c52 -32 36 -55 -26 -38 -36 10 -53 35 -31 49 19 12 19 12 57 -11z
m1382 -90 c0 -29 -32 -90 -47 -90 -26 0 -9 82 21 102 18 13 26 9 26 -12z
m1253 -18 c12 -12 42 -28 66 -37 59 -21 75 -34 60 -51 -6 -8 -19 -14 -29 -14
-10 0 -31 -7 -46 -15 -16 -8 -50 -15 -76 -15 -62 0 -93 -13 -110 -45 -10 -21
-33 -33 -109 -59 -52 -18 -101 -30 -107 -28 -34 11 16 145 69 182 16 12 52 30
81 40 70 24 28 26 -50 1 -70 -21 -97 -14 -68 18 33 36 98 50 213 47 69 -2 87
-6 106 -24z m2345 -51 c37 -16 89 -35 115 -42 65 -16 215 -6 295 19 75 24 91
12 41 -30 -82 -69 -289 -94 -413 -50 -87 32 -159 93 -141 122 10 16 33 12 103
-19z m-13 -120 l90 -46 135 -5 c109 -4 135 -8 135 -20 0 -20 -127 -59 -198
-59 -58 -1 -122 20 -247 82 -54 27 -81 67 -61 91 17 20 31 16 146 -43z m958
-16 c-1 -39 -14 -115 -29 -170 -14 -55 -31 -134 -36 -174 -12 -92 -42 -154
-103 -210 -81 -75 -118 -86 -287 -86 -104 0 -151 4 -159 13 -22 21 4 33 109
48 117 16 172 33 264 81 62 32 138 100 138 122 0 16 -24 25 -28 12 -34 -102
-367 -226 -448 -167 -28 21 -13 31 96 61 52 15 122 40 155 56 103 48 127 76
199 222 35 73 67 146 71 162 19 88 26 106 43 103 14 -3 17 -15 15 -73z m120
43 c13 -49 -29 -280 -59 -326 -18 -28 -38 -19 -30 14 3 12 13 85 21 162 8 76
17 146 21 155 9 24 41 21 47 -5z m-3453 -28 c20 -13 2 -44 -29 -48 -29 -5 -40
27 -16 44 22 16 25 17 45 4z m-3043 -35 c123 -33 147 -43 223 -101 36 -27 98
-67 139 -88 42 -22 76 -46 78 -57 4 -13 14 -19 34 -19 22 0 32 -7 41 -25 6
-14 18 -25 27 -25 35 0 91 -22 91 -35 0 -34 -82 -30 -201 10 -71 24 -126 52
-231 117 -79 48 -235 99 -328 105 -41 3 -83 10 -92 15 -27 13 -21 53 13 93 39
44 74 46 206 10z m5173 0 c8 -9 17 -60 21 -115 4 -54 11 -118 14 -142 6 -42 4
-46 -40 -96 -55 -61 -210 -167 -316 -216 -116 -54 -189 -70 -309 -68 -220 4
-275 32 -85 45 215 14 228 22 45 29 -109 4 -180 12 -210 22 -25 9 -75 16 -111
16 -67 0 -108 17 -95 38 5 9 72 12 224 13 l217 1 -90 24 c-143 40 -146 40
-204 30 -87 -14 -192 7 -165 34 20 20 260 24 359 6 126 -22 302 -21 397 3 125
32 236 98 289 172 25 35 18 50 -11 24 -35 -32 -35 8 0 98 43 110 45 112 70 82z
m154 -60 c18 -14 38 -25 45 -25 6 0 16 -11 21 -25 11 -29 44 -44 113 -52 37
-5 47 -10 45 -22 -5 -27 -106 -27 -167 0 -50 21 -121 87 -121 112 0 12 19 37
28 37 2 0 18 -11 36 -25z m-2060 -46 c14 -11 26 -27 26 -35 0 -8 -16 -41 -36
-72 -54 -84 -121 -221 -135 -276 -6 -26 -27 -66 -46 -89 -38 -45 -37 -31 -16
-174 8 -60 -12 -56 -42 10 -16 34 -25 70 -25 105 0 53 4 61 57 104 20 15 21
24 16 142 l-6 126 41 37 c23 21 47 54 53 73 24 71 63 88 113 49z m709 -74 c51
-44 133 -75 219 -82 76 -7 93 -14 85 -37 -14 -37 -104 -47 -184 -20 -97 32
-183 106 -183 158 0 25 18 19 63 -19z m-3026 -31 c7 -18 -12 -34 -39 -34 -35
0 -10 48 25 50 4 0 10 -7 14 -16z m33 -74 c0 -13 -34 -30 -59 -30 -20 0 -28
19 -14 33 10 11 73 8 73 -3z m-1021 -33 c6 -8 16 -36 22 -64 l12 -51 36 5 c20
3 40 10 46 14 15 15 24 10 40 -21 20 -38 35 -38 35 -1 0 46 20 49 53 8 20 -26
37 -37 55 -37 68 -1 68 -44 2 -77 -25 -13 -75 -30 -112 -39 -122 -30 -175 -1
-215 117 -33 98 -37 124 -18 143 20 19 29 20 44 3z m181 -27 c0 -13 -7 -20
-19 -20 -22 0 -35 15 -26 30 12 19 45 11 45 -10z m5575 0 c0 -12 -13 -15 -55
-15 -63 1 -94 10 -85 25 4 7 34 10 73 8 52 -2 67 -6 67 -18z m-2211 -23 c74
-97 120 -333 97 -499 -12 -88 -46 -217 -68 -265 -20 -40 -195 -213 -217 -213
-23 0 -20 20 18 107 19 43 40 107 46 142 22 122 -20 253 -114 358 -28 30 -46
60 -46 74 0 27 49 121 65 126 11 3 55 -85 55 -110 0 -8 17 -34 39 -57 21 -23
47 -59 56 -81 10 -21 22 -39 27 -39 14 0 28 47 34 121 7 75 -2 88 -26 37 -18
-38 -37 -47 -47 -21 -3 10 -13 26 -21 35 -11 13 -13 31 -8 72 8 60 22 79 41
53 7 -9 15 -14 18 -10 10 9 8 101 -2 143 -15 67 12 81 53 27z m-1501 -22 c-17
-140 -21 -310 -11 -452 13 -190 4 -268 -44 -363 -28 -57 -80 -110 -107 -110
-26 0 -23 32 6 63 17 18 36 48 42 67 17 50 30 256 31 474 0 162 3 199 21 260
12 39 23 75 26 79 10 16 38 1 36 -18z m1329 -40 c-10 -49 -32 -59 -32 -15 0
17 5 41 11 52 17 31 31 8 21 -37z m2074 -60 c16 -85 -42 -239 -127 -337 -72
-85 -79 -59 -15 65 24 47 53 123 65 169 29 109 41 138 57 138 7 0 16 -16 20
-35z m-126 13 c-1 -7 -7 -24 -15 -38 -19 -33 -19 -80 1 -108 15 -22 14 -26
-10 -76 -14 -29 -54 -83 -87 -120 -55 -59 -65 -66 -89 -61 -19 4 -58 -4 -117
-25 -100 -36 -243 -52 -282 -31 -33 18 -18 28 56 35 37 4 88 12 113 18 61 14
190 74 190 87 0 14 2 15 -74 -14 -94 -36 -233 -50 -349 -36 -109 13 -157 27
-157 47 0 12 24 14 158 8 180 -8 238 2 357 61 87 42 157 103 225 195 48 64 81
88 80 58z m300 -87 c0 -35 -34 -81 -49 -66 -7 7 -4 24 9 53 22 49 40 55 40 13z
m-97 -35 c8 -21 -17 -61 -38 -61 -15 0 -19 6 -17 24 4 43 43 69 55 37z m-5268
-26 c12 -19 -47 -45 -104 -45 -44 0 -56 4 -59 16 -2 11 7 21 25 27 36 13 130
15 138 2z m-891 -108 c31 -46 32 -54 6 -77 -14 -13 -18 -25 -14 -44 15 -67 97
-367 101 -371 13 -12 -10 160 -32 246 -28 104 -30 124 -15 124 17 0 48 -84 82
-217 17 -67 34 -123 39 -123 5 0 9 53 9 117 0 116 0 118 -27 139 -40 32 -18
54 53 54 90 0 99 -28 38 -120 -39 -58 -37 -105 5 -158 l34 -42 -11 -82 c-6
-46 -14 -112 -18 -148 -3 -35 -13 -80 -21 -100 -13 -27 -16 -65 -14 -172 1
-94 -2 -138 -9 -138 -6 0 -24 9 -39 21 -21 15 -49 22 -108 26 -91 6 -119 -8
-48 -26 74 -18 70 -47 -8 -67 l-42 -10 81 -7 c115 -9 181 -41 201 -98 26 -74
7 -197 -38 -245 -30 -32 -45 -30 -64 6 -13 26 -21 30 -58 30 -23 1 -60 8 -82
16 -115 44 -217 40 -399 -16 -175 -53 -280 -50 -338 12 -52 56 -36 142 48 260
40 57 60 104 154 363 73 204 185 439 264 556 160 239 224 329 235 329 5 0 20
-17 35 -38z m5210 29 c7 -11 -22 -23 -35 -15 -5 3 -9 9 -9 15 0 12 37 12 44 0z
m-203 -134 c33 -98 67 -134 181 -193 90 -47 105 -63 88 -95 -23 -42 -104 -66
-257 -79 -139 -11 -195 -36 -261 -120 -73 -93 -81 -102 -92 -95 -18 11 -11 48
21 115 37 80 69 114 134 147 28 14 58 33 69 42 17 15 17 16 -15 21 -21 3 -35
11 -37 22 -4 19 33 31 123 43 70 9 86 20 60 39 -26 20 -79 20 -121 0 -18 -9
-72 -50 -119 -91 -78 -68 -105 -81 -105 -50 0 7 25 43 55 81 76 95 75 127 -1
62 -51 -44 -86 -109 -120 -226 -30 -102 -40 -123 -56 -114 -7 4 -8 35 -4 82
21 229 177 452 316 452 34 0 52 5 65 20 31 35 48 20 76 -63z m1274 27 c-1
-140 -200 -326 -363 -341 -41 -4 -62 -2 -67 7 -11 18 8 31 61 41 135 25 268
150 322 301 23 66 47 62 47 -8z m-5197 23 c4 -21 -25 -34 -40 -19 -8 8 -8 16
2 27 16 19 34 15 38 -8z m5105 -13 c12 -12 -22 -60 -90 -125 -83 -80 -161
-133 -234 -158 -125 -44 -263 -50 -198 -8 13 8 60 25 104 37 129 35 177 63
285 166 92 87 117 104 133 88z m542 -4 c-3 -5 -22 -10 -41 -10 -19 0 -34 5
-34 10 0 6 18 10 41 10 24 0 38 -4 34 -10z m-108 -91 c14 -27 18 -129 5 -129
-7 0 -22 50 -39 134 -7 35 15 32 34 -5z m-2678 -90 c62 -63 69 -119 13 -119
-34 0 -52 16 -52 46 0 16 -7 24 -22 26 -25 3 -33 26 -24 64 9 36 38 30 85 -17z
m1491 -29 c0 -5 -9 -10 -19 -10 -11 0 -23 5 -26 10 -4 6 5 10 19 10 14 0 26
-4 26 -10z m830 -26 c0 -18 -53 -74 -69 -74 -22 0 -10 42 19 71 30 30 50 31
50 3z m200 -47 c0 -71 -232 -236 -376 -266 -73 -16 -148 -2 -142 27 3 12 13
17 38 16 64 -3 144 17 228 58 65 31 99 55 150 109 62 64 102 86 102 56z
m-2258 -155 c-15 -56 -38 -84 -51 -63 -9 14 12 95 31 118 22 27 33 -3 20 -55z
m1167 18 c18 -23 46 -43 68 -50 91 -30 163 -69 163 -88 0 -36 -56 -44 -85 -12
-24 26 -82 27 -109 1 -66 -60 -436 -98 -436 -45 0 21 32 30 148 43 159 19 165
30 12 25 -109 -4 -151 -10 -217 -31 -46 -15 -86 -23 -90 -19 -5 4 8 22 28 41
38 35 104 55 182 55 68 1 176 19 208 36 17 8 37 30 44 47 24 57 36 57 84 -3z
m610 -9 c10 -7 -5 -19 -59 -46 -66 -33 -80 -37 -125 -31 -85 10 -127 25 -123
44 3 14 22 18 113 24 100 7 162 12 175 16 3 1 11 -2 19 -7z m-1554 -41 c9 -15
-28 -75 -46 -75 -17 0 -16 49 2 71 13 16 35 18 44 4z m2041 -54 c-8 -39 -65
-187 -78 -203 -16 -19 -46 -15 -53 7 -7 23 -26 18 -102 -29 -28 -17 -73 -35
-101 -41 -66 -12 -164 -45 -225 -76 -50 -26 -73 -22 -61 9 10 28 63 53 207
101 212 70 289 118 365 229 35 53 58 54 48 3z m272 -106 c4 -78 0 -100 -24
-168 -29 -82 -40 -102 -56 -102 -11 0 -8 33 15 134 14 63 14 71 1 81 -14 10
-14 19 -3 76 6 35 16 72 21 83 9 17 11 17 26 2 13 -12 18 -40 20 -106z m-2940
82 c4 -23 -33 -65 -51 -59 -20 6 -19 32 4 61 24 30 42 30 47 -2z m1652 -71 c0
-6 -4 -12 -9 -15 -13 -8 -42 4 -35 15 7 12 44 12 44 0z m529 -2 c34 -12 40
-24 15 -33 -38 -14 -94 -3 -94 19 0 24 32 30 79 14z m561 -12 c0 -75 -147
-263 -272 -348 -61 -41 -192 -94 -208 -84 -17 11 -11 32 13 43 17 8 7 10 -52
9 -49 -1 -75 2 -78 10 -7 19 29 32 132 47 99 15 102 16 212 96 24 17 60 37 80
44 41 14 81 63 103 125 17 51 38 81 55 81 9 0 15 -9 15 -23z m-1226 -26 c7
-10 -19 -33 -61 -55 -53 -27 -196 -17 -241 17 -24 19 9 27 113 28 55 1 114 5
130 9 43 11 53 11 59 1z m371 -11 c0 -17 -35 -36 -93 -51 -33 -8 -41 -13 -33
-23 17 -20 -16 -56 -76 -82 -54 -24 -93 -31 -93 -16 0 12 49 57 90 81 l35 22
-30 -7 c-16 -4 -66 -23 -110 -42 -157 -69 -228 -76 -346 -38 -41 13 -93 29
-116 35 -77 21 -43 47 42 32 28 -4 91 -16 140 -26 l90 -18 70 26 c39 14 104
39 145 57 140 59 285 85 285 50z m-1237 -45 c18 -38 14 -107 -6 -131 -9 -12
-33 -30 -52 -39 -19 -10 -42 -24 -52 -32 -30 -27 -30 5 1 70 16 34 39 83 50
110 22 52 42 60 59 22z m181 -72 c20 -21 53 -51 74 -66 21 -16 66 -63 101
-105 57 -69 72 -80 142 -111 76 -33 86 -34 292 -47 279 -17 289 -23 234 -134
-33 -68 -58 -74 -55 -12 1 27 -2 42 -10 42 -7 -1 -37 -37 -67 -81 -65 -95
-132 -161 -155 -153 -25 10 -17 31 25 64 51 41 114 160 84 160 -3 0 -34 -25
-67 -56 -34 -31 -78 -66 -97 -79 -39 -24 -142 -65 -166 -65 -33 0 -6 34 56 72
65 39 140 104 140 121 0 5 -13 -4 -29 -20 -29 -30 -242 -149 -275 -155 -44 -7
-21 23 61 77 219 145 230 190 23 95 -124 -57 -137 -53 -65 20 93 94 61 92 -74
-6 -80 -59 -121 -71 -100 -31 7 12 39 51 71 85 32 35 57 69 55 75 -12 34 -157
-26 -226 -93 -40 -39 -61 -50 -61 -31 0 5 22 42 49 83 49 74 70 118 54 118
-11 0 -91 -84 -127 -132 -15 -21 -31 -38 -37 -38 -17 0 -9 30 26 100 37 73 35
88 -5 45 -21 -22 -50 -34 -50 -20 0 3 20 36 45 72 49 71 58 95 53 139 -3 28
-4 28 -32 -21 -16 -27 -57 -97 -92 -155 -34 -58 -70 -132 -80 -165 -20 -67
-25 -228 -10 -332 8 -56 7 -63 -8 -63 -26 0 -65 95 -76 184 -18 142 18 275
102 378 52 63 100 147 118 201 13 42 58 77 99 77 15 0 38 -15 60 -37z m1053
-14 c9 -52 -10 -76 -44 -58 -15 8 -18 17 -12 42 16 79 44 87 56 16z m608 -4
c0 -25 -89 -68 -214 -102 -137 -37 -156 -39 -156 -18 0 19 10 23 185 84 151
53 185 59 185 36z m-950 -84 c10 -19 11 -19 60 0 28 10 64 19 81 19 26 0 30
-3 27 -22 -5 -37 -81 -57 -213 -58 -114 0 -155 12 -155 45 0 17 23 23 95 28
28 2 60 4 72 5 13 1 27 -6 33 -17z m1340 -79 c0 -80 -123 -212 -197 -212 -32
0 -28 13 12 44 58 44 95 88 126 149 35 67 59 75 59 19z m-1432 -62 c45 -20 55
-40 22 -40 -34 0 -90 28 -90 44 0 21 16 20 68 -4z m-1018 -75 c0 -20 -10 -64
-21 -98 -19 -55 -20 -75 -15 -179 7 -119 -3 -158 -25 -101 -15 37 -14 255 0
318 21 88 61 127 61 60z m1513 -111 c27 -9 59 -30 77 -50 26 -30 30 -42 30
-95 0 -62 -22 -123 -42 -117 -7 3 -12 35 -12 85 -1 53 -6 86 -15 97 -19 23
-27 12 -45 -65 -19 -84 -53 -161 -104 -236 -43 -63 -103 -106 -122 -87 -8 8 3
28 39 69 54 62 95 137 105 195 7 40 12 46 -69 -78 -82 -125 -117 -128 -65 -5
39 94 52 136 39 128 -5 -4 -18 -23 -29 -44 -22 -44 -193 -227 -245 -262 -40
-27 -102 -138 -129 -231 -18 -63 -35 -73 -60 -36 -20 28 -20 59 -2 103 20 47
6 44 -26 -6 -54 -83 -61 -201 -18 -308 42 -107 17 -120 -43 -22 -50 82 -56
132 -28 241 34 136 94 215 137 179 14 -12 21 -8 58 36 22 27 90 103 149 169
121 134 162 189 181 244 15 42 39 52 67 26 18 -16 19 -16 19 12 0 71 55 92
153 58z m233 -30 c19 -45 15 -88 -9 -92 -21 -4 -47 50 -47 98 0 45 36 42 56
-6z m424 27 c0 -12 -40 -41 -57 -41 -19 0 -16 21 5 36 20 16 52 18 52 5z m104
-60 c11 -17 -42 -67 -102 -99 -69 -37 -82 -39 -82 -14 0 12 28 37 78 70 78 52
96 59 106 43z m-1834 -40 c0 -4 -20 -38 -45 -75 -53 -79 -61 -108 -70 -243 -4
-56 -10 -115 -14 -130 -12 -45 -28 -37 -35 19 -10 73 -17 98 -27 98 -5 0 -9
-26 -9 -58 0 -58 23 -155 54 -225 15 -33 15 -38 1 -43 -21 -9 -43 12 -69 65
-31 63 -38 93 -37 181 1 158 73 303 195 392 40 29 56 34 56 19z m-4284 -57
c-5 -13 -10 -14 -18 -6 -6 6 -8 18 -4 28 5 13 10 14 18 6 6 -6 8 -18 4 -28z
m4384 28 c0 -14 -23 -32 -42 -32 -21 0 -23 11 -6 28 13 13 48 16 48 4z m1730
-46 c0 -15 -55 -66 -70 -66 -22 0 -20 24 6 51 29 31 64 39 64 15z m-6064 -24
c19 -12 31 -44 49 -124 24 -109 6 -132 -41 -53 -38 66 -58 139 -44 165 11 21
19 24 36 12z m5829 -42 c10 -16 -5 -50 -21 -50 -20 0 -29 27 -14 45 14 17 26
19 35 5z m-6475 -70 c0 -16 -7 -20 -35 -20 -35 0 -50 22 -22 33 31 13 57 7 57
-13z m5338 3 c2 -7 -11 -21 -28 -30 -18 -10 -69 -42 -114 -71 -72 -47 -85 -53
-119 -47 l-38 5 -29 -62 c-38 -82 -59 -165 -66 -258 -5 -67 -3 -84 25 -159 23
-61 29 -87 21 -95 -16 -16 -37 16 -60 92 -23 74 -27 237 -9 324 27 125 89 213
158 224 21 3 78 26 127 49 89 44 124 51 132 28z m82 -17 c0 -8 -26 -35 -57
-60 -32 -24 -89 -76 -128 -115 -71 -72 -95 -86 -95 -52 0 22 114 148 183 203
50 39 97 50 97 24z m-1790 -17 c7 -11 9 -28 5 -37 -6 -15 -8 -15 -21 2 -16 23
-19 56 -4 56 5 0 14 -9 20 -21z m2800 -11 c0 -35 -37 -88 -60 -88 -26 0 -25
14 5 67 28 47 55 57 55 21z m-5904 -83 c9 -14 27 -63 40 -108 13 -46 32 -103
43 -128 19 -42 20 -42 13 -9 -4 19 -7 55 -7 80 0 71 24 58 58 -30 56 -151 78
-197 119 -246 71 -85 94 -164 49 -164 -10 0 -44 30 -75 66 -32 36 -75 76 -95
88 -27 18 -49 48 -89 124 -61 117 -78 135 -69 74 3 -24 26 -77 52 -122 53 -91
66 -147 40 -173 -25 -26 -56 -21 -179 28 -89 35 -127 45 -173 45 -150 0 -206
57 -154 158 37 72 135 141 246 173 119 35 115 31 115 92 0 76 33 102 66 52z
m5444 -28 c0 -19 -37 -50 -49 -42 -25 15 -2 55 31 55 10 0 18 -6 18 -13z m370
-22 c0 -23 -49 -54 -117 -75 -111 -34 -137 -22 -56 25 58 35 155 75 165 68 5
-2 8 -10 8 -18z m-202 -2 c-4 -20 -83 -83 -104 -83 -26 0 -15 27 26 64 43 38
84 49 78 19z m-1074 -99 c-20 -60 -40 -85 -49 -62 -8 22 12 93 32 113 26 27
34 3 17 -51z m824 44 c-2 -17 -11 -24 -30 -26 -32 -4 -37 14 -10 34 27 21 44
17 40 -8z m-5137 -95 c11 -27 28 -66 39 -88 l19 -40 0 38 c1 30 5 37 21 37 27
0 69 -75 97 -173 44 -151 20 -186 -44 -64 -30 56 -46 76 -74 89 -27 13 -44 32
-72 85 -36 70 -54 133 -42 152 14 24 37 9 56 -36z m5171 -28 c-46 -50 -89
-126 -146 -257 -20 -48 -46 -51 -46 -6 0 66 138 290 198 322 50 26 46 -1 -6
-59z m-274 -277 c4 -33 -23 -57 -36 -31 -12 22 3 66 20 61 7 -3 14 -16 16 -30z
m-138 -103 c0 -14 -4 -25 -10 -25 -11 0 -14 33 -3 43 11 11 13 8 13 -18z m290
-78 c0 -49 -84 -297 -101 -297 -15 0 -17 31 -4 92 14 69 59 193 76 215 17 20
29 16 29 -10z m-1157 -83 c59 -83 327 -558 352 -624 13 -36 74 -200 135 -365
61 -165 126 -337 146 -383 52 -124 95 -447 54 -406 -5 5 -52 136 -104 291
-195 578 -364 984 -548 1313 -101 181 -110 199 -103 210 13 21 37 8 68 -36z
m130 -45 c81 -93 239 -376 337 -604 77 -180 204 -498 238 -600 47 -137 81
-423 50 -413 -7 3 -27 63 -44 134 -34 137 -137 443 -223 661 -58 146 -364 768
-405 822 -24 32 -26 51 -6 51 5 0 29 -23 53 -51z m-468 21 c0 -8 -10 -16 -22
-18 -22 -3 -32 16 -16 32 12 11 38 2 38 -14z m1502 -47 c17 -44 -38 -275 -72
-303 -13 -10 -15 -8 -15 17 0 16 7 53 16 82 11 39 44 200 44 219 0 10 22 -1
27 -15z m-739 -19 c12 -8 22 -22 22 -30 0 -22 -47 -17 -64 8 -26 37 1 51 42
22z m137 -28 c16 -12 17 -16 6 -30 -7 -9 -27 -16 -43 -16 -36 0 -49 27 -23 46
24 18 36 18 60 0z m-245 -63 c23 -27 61 -74 83 -105 24 -34 44 -53 48 -47 26
43 125 -83 205 -261 58 -127 136 -339 147 -397 7 -34 -7 -53 -25 -35 -5 5 -45
98 -89 207 -43 108 -101 236 -128 283 -27 48 -52 97 -55 108 -7 24 -46 63 -46
47 0 -6 11 -27 25 -47 14 -20 40 -76 59 -124 19 -48 50 -123 71 -167 97 -209
165 -419 165 -508 0 -57 -20 -42 -52 39 -15 38 -66 168 -113 289 -105 266
-200 466 -284 600 -97 153 -103 164 -96 175 10 15 37 -3 85 -57z m934 -21 c-1
-37 -10 -66 -34 -107 -43 -75 -61 -61 -31 26 11 35 21 71 21 82 0 27 19 59 33
54 7 -2 11 -24 11 -55z m-1647 7 c15 -29 17 -99 3 -99 -16 0 -40 57 -40 95 0
42 17 43 37 4z m1303 -12 c0 -12 -5 -29 -10 -37 -7 -11 -10 -3 -10 28 0 26 4
41 10 37 6 -3 10 -16 10 -28z m-257 -108 c58 -38 107 -96 107 -126 0 -36 -24
-27 -60 24 -19 26 -36 41 -38 35 -2 -7 21 -68 52 -136 59 -134 71 -181 46
-181 -19 0 -190 337 -190 375 0 50 19 52 83 9z m-1483 -74 c14 -17 10 -47 -7
-52 -7 -3 -17 7 -23 22 -15 40 4 61 30 30z m38 -147 c3 -22 -1 -28 -17 -28
-19 0 -51 24 -51 39 0 15 15 22 40 19 19 -2 26 -10 28 -30z m-88 -2 c0 -20
-25 -37 -44 -30 -19 7 -20 16 -4 32 16 16 48 15 48 -2z m215 -51 c0 -21 -5
-40 -12 -42 -14 -5 -29 60 -18 77 13 22 30 3 30 -35z m-105 -14 c13 -25 13
-81 0 -81 -13 0 -30 43 -30 76 0 29 15 31 30 5z m-139 -198 c12 -33 8 -58 -10
-58 -16 0 -34 52 -26 73 7 20 25 14 36 -15z m-261 -108 c0 -14 -29 -35 -49
-35 -12 0 -15 33 -4 43 13 13 53 7 53 -8z m-350 -245 c0 -19 -30 -70 -41 -70
-21 0 -21 32 1 56 25 25 40 31 40 14z m-130 -197 c0 -23 -39 -63 -62 -63 -25
0 -22 26 7 55 28 29 55 33 55 8z m70 -71 c0 -32 -75 -88 -98 -73 -18 11 -6 32
35 64 42 31 63 35 63 9z m-295 -12 c0 -18 -33 -26 -47 -12 -6 6 -7 15 -3 22
10 16 50 8 50 -10z m-390 -320 c0 -10 -12 -16 -39 -18 -44 -4 -70 13 -46 29
23 14 85 7 85 -11z"/>
<path d="M4855 12320 c-14 -6 -1 -9 45 -12 82 -4 85 -21 14 -64 -38 -22 -90
-38 -190 -60 l-139 -29 90 -6 c50 -4 113 -14 140 -22 28 -8 68 -18 90 -21 l40
-5 -34 12 c-43 17 -62 43 -41 57 8 6 47 19 85 30 105 31 114 36 108 59 -4 15
2 24 21 32 14 7 26 15 26 19 0 7 -138 20 -200 19 -19 0 -44 -4 -55 -9z"/>
<path d="M3675 12138 c32 -35 64 -67 72 -71 20 -12 278 -43 476 -58 128 -10
185 -10 245 -1 42 6 147 15 232 19 179 8 158 17 -65 28 -222 10 -229 14 -113
66 68 31 63 35 -25 19 -31 -6 -91 -15 -134 -20 -66 -7 -80 -12 -96 -34 -18
-25 -23 -26 -115 -26 -131 1 -234 21 -331 64 -70 32 -185 76 -199 76 -2 0 22
-28 53 -62z"/>
<path d="M5510 11984 c-103 -22 -266 -82 -380 -139 -110 -55 -154 -70 -232
-80 -71 -9 -62 -29 10 -22 65 7 160 38 282 92 49 21 163 56 269 81 101 25 192
49 203 55 55 29 -40 38 -152 13z"/>
<path d="M3765 11976 c-22 -7 -76 -30 -120 -51 -65 -31 -91 -38 -137 -37 -32
1 -60 -4 -64 -10 -5 -7 4 -9 29 -4 47 9 54 -6 17 -37 -30 -25 -46 -31 -132
-42 -60 -8 -112 -42 -116 -77 -4 -35 9 -41 143 -67 229 -43 268 -65 382 -212
94 -122 190 -226 199 -216 4 4 -5 29 -19 57 -63 121 -226 291 -297 310 -48 13
-110 64 -110 91 0 26 17 24 102 -10 40 -15 91 -32 113 -35 55 -10 98 -46 157
-132 29 -40 54 -72 56 -69 3 2 -17 48 -44 102 -78 156 -146 213 -255 213 -20
0 -42 7 -49 15 -27 32 41 91 190 165 44 23 78 45 75 50 -8 14 -72 11 -120 -4z"/>
<path d="M5740 11947 c0 -17 14 -24 95 -42 33 -7 70 -17 83 -20 24 -8 30 6 10
22 -22 17 -92 41 -141 48 -38 6 -47 4 -47 -8z"/>
<path d="M3980 11932 c0 -6 30 -20 68 -32 166 -55 265 -141 351 -308 49 -96
62 -137 41 -130 -5 2 -58 59 -117 128 -128 148 -167 174 -283 194 -101 17
-130 5 -44 -19 109 -30 156 -57 234 -135 50 -50 95 -109 134 -175 32 -55 83
-130 112 -166 30 -36 54 -71 54 -78 0 -17 -36 -13 -72 9 -43 26 -44 25 -56
-10 -19 -54 -91 -53 -208 4 -39 20 -91 54 -117 77 -54 47 -58 44 -18 -14 48
-69 82 -95 146 -111 68 -18 197 -21 227 -5 30 16 78 -6 78 -36 0 -13 -7 -25
-15 -29 -8 -3 -15 -10 -15 -15 0 -5 25 -61 55 -125 59 -122 63 -136 42 -136
-26 0 -75 78 -91 143 -8 34 -29 35 -44 2 -21 -45 -13 -72 36 -138 26 -35 67
-92 92 -126 71 -100 186 -202 288 -254 175 -91 399 -141 597 -135 106 3 113 5
180 42 l70 38 47 -17 c40 -14 51 -15 74 -3 44 21 53 44 27 70 -19 18 -26 20
-45 10 -13 -6 -60 -25 -106 -42 -123 -44 -225 -37 -133 9 22 12 43 26 47 32
15 24 -60 -1 -135 -46 -84 -50 -110 -55 -129 -24 -12 19 -20 21 -70 16 -147
-13 -402 50 -402 99 0 18 14 18 97 -2 91 -22 288 -23 368 -1 142 37 152 56 18
36 -109 -17 -336 -17 -423 0 -113 22 -199 72 -162 95 4 2 41 -2 81 -11 54 -11
80 -12 97 -4 18 8 34 7 65 -4 113 -40 334 2 574 109 86 38 114 42 164 25 46
-16 60 1 32 37 -11 15 -21 33 -21 40 0 19 -23 17 -62 -5 -54 -32 -316 -71
-472 -71 -157 0 -374 52 -510 123 -124 64 -173 126 -147 183 15 33 40 30 53
-6 13 -40 70 -72 180 -104 186 -54 435 -74 511 -43 37 16 77 56 43 43 -40 -15
-204 -18 -306 -7 -124 15 -170 31 -170 60 0 26 29 28 73 4 47 -26 244 -23 350
6 85 22 178 68 185 90 6 18 -6 15 -196 -44 l-154 -48 -46 16 c-26 9 -85 23
-132 30 -48 8 -114 26 -147 39 -78 32 -163 86 -163 104 0 19 8 18 97 -12 63
-22 102 -28 203 -31 205 -8 383 31 552 119 106 55 204 149 156 148 -7 0 -57
-27 -112 -60 -185 -112 -380 -171 -571 -173 -133 -2 -194 10 -241 49 -42 34
-18 46 55 27 31 -8 99 -16 151 -19 l95 -4 -72 14 c-130 25 -233 65 -233 91 0
18 -1 18 44 0 20 -8 78 -17 128 -20 51 -2 82 -2 68 1 -14 3 -34 14 -45 24 -11
10 -48 23 -82 30 -154 27 -363 129 -363 176 0 11 24 14 128 14 123 0 295 15
319 28 6 4 -45 8 -115 9 -181 2 -382 49 -382 90 0 14 9 15 65 9 36 -4 73 -9
82 -13 13 -4 15 -3 8 5 -5 6 -58 29 -116 51 -58 23 -113 47 -124 54 -29 22
-10 35 40 29 25 -2 45 -2 45 2 0 11 -141 74 -205 92 -74 20 -255 31 -255 16z
m655 -788 c25 -27 25 -44 -1 -44 -18 0 -54 36 -54 55 0 23 29 18 55 -11z m111
-75 c9 -16 -15 -29 -55 -29 -28 0 -32 2 -21 14 6 8 21 17 33 19 12 2 25 5 29
6 4 0 10 -4 14 -10z m219 -366 c33 -8 113 -18 177 -22 119 -7 135 -11 123 -30
-16 -27 -372 1 -453 35 -30 12 -33 16 -21 30 14 18 70 13 174 -13z"/>
<path d="M5526 11809 c-15 -23 -17 -23 -73 -9 -32 8 -84 14 -116 14 -62 1 -69
-4 -111 -75 l-16 -27 38 9 c20 5 51 9 68 9 50 0 152 -46 209 -95 68 -58 108
-74 178 -74 35 1 71 -6 101 -20 80 -35 326 -66 340 -42 5 7 -4 11 -26 11 -108
0 -326 83 -385 147 -20 21 -58 52 -86 68 -66 40 -71 55 -17 55 50 0 73 -11
125 -60 60 -57 118 -74 260 -77 66 -1 139 -5 162 -9 23 -3 49 -1 59 4 14 8 2
15 -65 36 -45 14 -96 26 -114 26 -18 0 -44 6 -59 14 -14 8 -46 17 -70 21 -24
4 -98 25 -164 46 -67 21 -144 41 -172 45 -44 6 -51 4 -66 -17z"/>
<path d="M5225 11620 c-3 -6 1 -7 9 -4 18 7 21 14 7 14 -6 0 -13 -4 -16 -10z"/>
<path d="M6300 11530 c-19 -12 66 -12 95 0 15 6 7 9 -30 9 -27 0 -57 -4 -65
-9z"/>
<path d="M4907 11506 c-37 -7 -70 -16 -75 -21 -13 -14 133 2 163 18 29 16 30
16 5 15 -14 0 -55 -6 -93 -12z"/>
<path d="M5760 11474 c0 -9 24 -26 58 -42 52 -25 67 -27 172 -26 117 1 230 23
230 45 0 6 -7 8 -16 5 -39 -15 -164 -27 -219 -20 -33 3 -91 17 -129 30 -81 28
-96 29 -96 8z"/>
<path d="M3590 11464 c0 -4 26 -34 58 -69 65 -69 92 -119 74 -137 -16 -16 -44
-2 -114 57 -55 45 -87 54 -95 28 -5 -14 25 -46 100 -106 61 -49 104 -113 138
-206 24 -66 38 -85 98 -143 52 -50 81 -70 113 -77 122 -30 241 -124 362 -285
136 -179 292 -319 451 -401 77 -40 117 -47 70 -12 -107 79 -81 99 54 42 82
-35 163 -42 227 -22 34 11 109 17 244 21 258 6 439 39 587 106 94 43 141 100
82 100 -11 0 -69 -23 -130 -50 -148 -68 -253 -92 -399 -92 -130 0 -201 11
-345 52 -201 58 -354 137 -470 243 -65 58 -82 66 -103 45 -19 -19 -14 -53 15
-112 15 -31 24 -58 21 -62 -18 -17 -68 24 -223 181 -124 125 -191 184 -246
219 -76 46 -171 86 -207 86 -27 0 -112 57 -112 75 0 10 10 15 31 15 l31 0 -36
64 c-62 111 -47 123 46 40 108 -97 322 -204 350 -176 12 12 -39 43 -108 66
-27 9 -83 35 -124 59 -77 43 -93 62 -180 209 -33 56 -221 248 -243 248 -9 0
-17 -3 -17 -6z m984 -1114 c32 -21 46 -36 44 -48 -9 -42 -118 13 -118 60 0 26
19 22 74 -12z m285 -38 c87 -56 112 -66 200 -86 69 -16 87 -27 78 -49 -14 -36
-125 -23 -220 25 -63 32 -167 121 -167 144 0 25 32 15 109 -34z"/>
<path d="M5415 11418 c-107 -49 -267 -97 -329 -99 -17 0 -40 -5 -51 -10 -37
-17 245 -3 293 15 69 25 241 147 206 146 -5 -1 -58 -24 -119 -52z"/>
<path d="M4110 11436 c0 -25 107 -114 165 -135 107 -40 111 -22 7 34 -37 20
-91 55 -119 76 -34 26 -53 35 -53 25z"/>
<path d="M5775 11297 c-4 -13 -5 -43 -3 -66 3 -42 4 -44 55 -63 69 -25 174
-125 211 -198 34 -70 71 -90 165 -90 65 0 88 12 47 25 -28 9 -25 24 8 31 87
19 169 56 221 99 53 45 35 46 -56 2 -81 -39 -95 -42 -168 -42 -119 0 -173 32
-328 197 -66 70 -126 128 -133 128 -8 0 -16 -10 -19 -23z"/>
<path d="M5838 11078 c-3 -7 -19 -11 -41 -10 -31 2 -37 -1 -37 -17 0 -24 64
-143 86 -162 19 -15 34 2 34 39 0 30 27 39 61 19 l28 -16 -26 42 c-34 55 -84
117 -94 117 -4 0 -9 -5 -11 -12z"/>
<path d="M4390 10772 c0 -48 77 -168 96 -150 7 8 -28 89 -56 128 -20 29 -40
39 -40 22z"/>
<path d="M3610 10712 l-45 -26 40 -12 c73 -23 358 -15 382 10 16 15 -18 21
-127 21 -98 0 -121 3 -137 18 -26 23 -59 20 -113 -11z"/>
<path d="M6010 10605 c-10 -12 -9 -16 3 -21 21 -8 37 3 30 21 -7 19 -17 19
-33 0z"/>
<path d="M5877 10553 c-25 -24 13 -60 49 -46 20 7 17 20 -8 37 -25 18 -32 19
-41 9z"/>
<path d="M6025 10451 c11 -11 32 -23 48 -26 40 -10 34 13 -8 31 -48 20 -63 18
-40 -5z"/>
<path d="M6180 10304 c-14 -10 -43 -34 -65 -54 -75 -71 -202 -139 -262 -141
-16 0 -57 4 -93 10 -60 9 -321 1 -420 -14 -74 -12 -325 -58 -329 -62 -3 -2 5
-10 17 -19 18 -12 20 -19 11 -35 -8 -16 -7 -25 7 -40 16 -18 15 -19 -7 -28
-13 -5 -33 -11 -44 -14 -19 -5 -19 -5 0 -6 10 0 62 -18 113 -38 80 -32 98 -44
118 -75 52 -81 172 -108 483 -108 l206 0 60 41 c123 83 185 104 185 64 0 -21
10 -19 61 13 57 37 75 58 91 107 40 124 178 -34 178 -204 0 -53 -29 -101 -141
-236 -122 -147 -196 -183 -419 -201 l-95 -8 60 -7 c33 -3 94 -2 136 3 174 20
303 94 397 227 53 77 82 111 94 111 4 0 8 -15 9 -32 1 -27 5 -20 25 40 27 82
40 191 30 246 -8 41 -50 96 -74 96 -10 0 -24 5 -32 10 -13 8 -12 12 8 25 28
20 28 39 1 76 l-21 30 -46 -43 c-127 -118 -351 -222 -622 -288 -163 -40 -410
-37 -410 5 0 17 32 25 111 25 78 0 217 23 274 45 l40 15 -45 -5 c-123 -13
-362 -17 -407 -6 -64 15 -144 52 -140 65 2 6 69 9 178 7 107 -1 170 1 164 7
-5 5 -66 17 -134 26 -156 22 -226 43 -226 71 0 35 46 44 432 85 89 10 119 10
143 0 41 -17 88 -6 196 45 102 48 194 107 238 154 26 28 28 31 10 31 -11 0
-31 -7 -44 -16z"/>
<path d="M5447 10013 c18 -2 50 -2 70 0 21 2 7 4 -32 4 -38 0 -55 -2 -38 -4z"/>
<path d="M6667 9623 c-4 -3 -7 -13 -7 -22 1 -13 3 -13 11 2 11 19 8 33 -4 20z"/>
<path d="M5580 9476 c8 -7 31 -19 50 -26 39 -13 259 -27 248 -15 -7 7 -264 54
-298 55 -12 0 -12 -2 0 -14z"/>
<path d="M5692 9360 c9 -6 38 -13 65 -15 60 -7 29 9 -37 19 -32 4 -40 3 -28
-4z"/>
<path d="M1787 10709 c-52 -12 -77 -27 -77 -44 0 -18 0 -18 135 1 125 17 178
31 170 45 -8 11 -177 10 -228 -2z"/>
<path d="M2630 10631 c0 -15 28 -33 40 -26 8 5 8 11 -1 21 -13 15 -39 19 -39
5z"/>
<path d="M2720 10556 c0 -2 7 -9 15 -16 12 -10 15 -10 15 4 0 9 -7 16 -15 16
-8 0 -15 -2 -15 -4z"/>
<path d="M2610 10490 c0 -5 4 -10 8 -10 5 0 34 -16 66 -35 32 -19 60 -35 63
-35 2 0 3 10 1 23 -5 36 -138 92 -138 57z"/>
<path d="M1276 10335 c-20 -64 -59 -167 -86 -231 -54 -125 -62 -156 -33 -133
25 21 99 184 127 283 25 85 44 196 34 196 -3 0 -22 -52 -42 -115z"/>
<path d="M2490 10425 c0 -2 14 -11 30 -20 17 -9 30 -11 30 -6 0 6 -9 15 -19
21 -21 11 -41 13 -41 5z"/>
<path d="M2450 9980 c0 -12 48 -25 58 -16 8 9 -18 26 -40 26 -10 0 -18 -4 -18
-10z"/>
<path d="M2571 9901 c-9 -6 -10 -11 -2 -15 15 -10 53 3 46 15 -8 11 -26 11
-44 0z"/>
<path d="M2800 9721 c0 -11 26 -22 34 -14 3 3 3 10 0 14 -7 12 -34 11 -34 0z"/>
<path d="M2520 9511 c0 -13 50 -51 66 -51 22 0 16 17 -12 39 -28 22 -54 28
-54 12z"/>
<path d="M3230 9361 c0 -13 29 -35 37 -28 7 8 -15 37 -28 37 -5 0 -9 -4 -9 -9z"/>
<path d="M3109 9296 c13 -15 51 -28 51 -17 0 14 -24 31 -43 31 -16 0 -17 -3
-8 -14z"/>
<path d="M2895 9200 c3 -5 13 -10 21 -10 8 0 12 5 9 10 -3 6 -13 10 -21 10 -8
0 -12 -4 -9 -10z"/>
<path d="M3285 8990 c3 -5 10 -10 16 -10 5 0 9 5 9 10 0 6 -7 10 -16 10 -8 0
-12 -4 -9 -10z"/>
<path d="M2621 8977 c-6 -8 -8 -17 -5 -20 8 -7 54 14 54 25 0 13 -36 9 -49 -5z"/>
<path d="M2765 8910 c4 -6 11 -8 16 -5 14 9 11 15 -7 15 -8 0 -12 -5 -9 -10z"/>
<path d="M2755 8790 c-3 -6 1 -13 10 -16 19 -8 30 0 20 15 -8 14 -22 14 -30 1z"/>
<path d="M3065 8790 c-8 -13 15 -24 27 -12 6 6 4 11 -6 15 -8 3 -18 2 -21 -3z"/>
<path d="M3146 8713 c-8 -9 14 -33 30 -33 8 0 14 4 14 10 0 12 -35 31 -44 23z"/>
<path d="M2860 8700 c0 -5 7 -10 15 -10 8 0 15 5 15 10 0 6 -7 10 -15 10 -8 0
-15 -4 -15 -10z"/>
<path d="M3340 8496 c0 -16 28 -42 36 -33 8 7 -14 47 -26 47 -6 0 -10 -6 -10
-14z"/>
<path d="M2855 8430 c3 -5 13 -10 21 -10 8 0 12 5 9 10 -3 6 -13 10 -21 10 -8
0 -12 -4 -9 -10z"/>
<path d="M3050 8381 c0 -10 30 -24 37 -17 3 3 2 9 -2 15 -8 13 -35 15 -35 2z"/>
<path d="M2950 8351 c0 -13 41 -41 60 -41 10 1 6 9 -13 25 -29 26 -47 32 -47
16z"/>
<path d="M4370 8320 c0 -5 5 -10 10 -10 6 0 10 5 10 10 0 6 -4 10 -10 10 -5 0
-10 -4 -10 -10z"/>
<path d="M2842 8298 c3 -7 15 -14 29 -16 23 -2 23 -2 5 13 -24 18 -39 20 -34
3z"/>
<path d="M3140 8295 c7 -8 17 -15 22 -15 6 0 5 7 -2 15 -7 8 -17 15 -22 15 -6
0 -5 -7 2 -15z"/>
<path d="M4300 8266 c0 -9 5 -16 10 -16 6 0 10 4 10 9 0 6 -4 13 -10 16 -5 3
-10 -1 -10 -9z"/>
<path d="M2775 8250 c3 -5 11 -10 16 -10 6 0 7 5 4 10 -3 6 -11 10 -16 10 -6
0 -7 -4 -4 -10z"/>
<path d="M3230 8210 c0 -5 5 -10 11 -10 5 0 7 5 4 10 -3 6 -8 10 -11 10 -2 0
-4 -4 -4 -10z"/>
<path d="M2876 8173 c-3 -3 -3 -10 0 -14 7 -12 34 -11 34 0 0 11 -26 22 -34
14z"/>
<path d="M2790 8136 c0 -2 8 -10 18 -17 15 -13 16 -12 3 4 -13 16 -21 21 -21
13z"/>
<path d="M4080 8084 c0 -8 5 -12 10 -9 6 4 8 11 5 16 -9 14 -15 11 -15 -7z"/>
<path d="M2965 8080 c3 -5 10 -10 16 -10 5 0 9 5 9 10 0 6 -7 10 -16 10 -8 0
-12 -4 -9 -10z"/>
<path d="M4220 8071 c0 -5 5 -13 10 -16 6 -3 10 -2 10 4 0 5 -4 13 -10 16 -5
3 -10 2 -10 -4z"/>
<path d="M2620 8062 c0 -12 19 -26 26 -19 2 2 -2 10 -11 17 -9 8 -15 8 -15 2z"/>
<path d="M2870 8050 c0 -5 5 -10 10 -10 6 0 10 5 10 10 0 6 -4 10 -10 10 -5 0
-10 -4 -10 -10z"/>
<path d="M3980 8032 c0 -5 9 -17 20 -27 11 -10 20 -23 20 -29 0 -14 48 -66 60
-66 21 0 8 25 -37 74 -50 54 -63 64 -63 48z"/>
<path d="M4140 8011 c0 -12 5 -21 10 -21 6 0 10 6 10 14 0 8 -4 18 -10 21 -5
3 -10 -3 -10 -14z"/>
<path d="M2790 8000 c0 -5 5 -10 10 -10 6 0 10 5 10 10 0 6 -4 10 -10 10 -5 0
-10 -4 -10 -10z"/>
<path d="M2686 7972 c-9 -14 21 -35 40 -28 8 3 14 12 12 19 -6 15 -44 22 -52
9z"/>
<path d="M3115 7950 c3 -5 8 -10 11 -10 2 0 4 5 4 10 0 6 -5 10 -11 10 -5 0
-7 -4 -4 -10z"/>
<path d="M2325 7930 c3 -5 8 -10 11 -10 2 0 4 5 4 10 0 6 -5 10 -11 10 -5 0
-7 -4 -4 -10z"/>
<path d="M3022 7908 c5 -15 28 -23 28 -10 0 5 -7 13 -16 16 -10 4 -14 1 -12
-6z"/>
<path d="M2220 7895 c0 -8 7 -15 16 -15 14 0 14 3 4 15 -7 8 -14 15 -16 15 -2
0 -4 -7 -4 -15z"/>
<path d="M2770 7890 c0 -5 7 -10 16 -10 8 0 12 5 9 10 -3 6 -10 10 -16 10 -5
0 -9 -4 -9 -10z"/>
<path d="M3960 7894 c0 -10 112 -145 117 -141 4 5 -105 147 -113 147 -2 0 -4
-2 -4 -6z"/>
<path d="M2940 7860 c0 -5 5 -10 11 -10 5 0 7 5 4 10 -3 6 -8 10 -11 10 -2 0
-4 -4 -4 -10z"/>
<path d="M4126 7851 c-4 -7 -5 -15 -2 -18 9 -9 19 4 14 18 -4 11 -6 11 -12 0z"/>
<path d="M2415 7840 c3 -5 10 -10 16 -10 5 0 9 5 9 10 0 6 -7 10 -16 10 -8 0
-12 -4 -9 -10z"/>
<path d="M3090 7841 c0 -5 18 -25 40 -45 39 -35 70 -47 70 -26 0 6 -4 10 -8
10 -5 0 -27 16 -49 35 -43 36 -53 41 -53 26z"/>
<path d="M2300 7805 c0 -18 36 -39 44 -26 7 10 -20 41 -35 41 -5 0 -9 -7 -9
-15z"/>
<path d="M2840 7810 c0 -5 7 -10 15 -10 8 0 15 5 15 10 0 6 -7 10 -15 10 -8 0
-15 -4 -15 -10z"/>
<path d="M3000 7790 c0 -5 5 -10 11 -10 5 0 7 5 4 10 -3 6 -8 10 -11 10 -2 0
-4 -4 -4 -10z"/>
<path d="M2747 7783 c-9 -9 12 -33 29 -33 19 0 18 26 -2 34 -19 7 -19 7 -27
-1z"/>
<path d="M2480 7760 c0 -5 9 -10 21 -10 11 0 17 5 14 10 -3 6 -13 10 -21 10
-8 0 -14 -4 -14 -10z"/>
<path d="M3486 7709 c73 -78 225 -260 358 -431 55 -71 101 -126 103 -124 8 8
-94 161 -172 256 -109 132 -300 337 -328 352 -12 6 5 -18 39 -53z"/>
<path d="M3720 7726 c66 -98 250 -305 250 -279 0 21 -95 140 -188 233 -81 82
-89 88 -62 46z"/>
<path d="M4190 7736 c0 -9 5 -16 10 -16 6 0 10 4 10 9 0 6 -4 13 -10 16 -5 3
-10 -1 -10 -9z"/>
<path d="M2365 7710 c3 -5 15 -10 26 -10 11 0 17 5 14 10 -3 6 -15 10 -26 10
-11 0 -17 -4 -14 -10z"/>
<path d="M3070 7709 c0 -5 5 -7 10 -4 6 3 10 8 10 11 0 2 -4 4 -10 4 -5 0 -10
-5 -10 -11z"/>
<path d="M4112 7688 c6 -18 28 -21 28 -4 0 9 -7 16 -16 16 -9 0 -14 -5 -12
-12z"/>
<path d="M4343 7688 c-29 -38 -45 -159 -22 -173 17 -11 21 0 31 90 10 90 8
105 -9 83z"/>
<path d="M2570 7681 c0 -6 5 -13 10 -16 6 -3 10 1 10 9 0 9 -4 16 -10 16 -5 0
-10 -4 -10 -9z"/>
<path d="M2972 7668 c5 -15 28 -18 29 -3 0 6 -7 12 -17 13 -10 3 -15 -1 -12
-10z"/>
<path d="M2445 7641 c-6 -11 33 -36 42 -27 3 3 3 12 0 21 -7 17 -33 20 -42 6z"/>
<path d="M4032 7639 c2 -7 10 -15 17 -17 8 -3 12 1 9 9 -2 7 -10 15 -17 17 -8
3 -12 -1 -9 -9z"/>
<path d="M2870 7631 c0 -5 6 -14 14 -20 16 -13 32 2 21 19 -8 12 -35 13 -35 1z"/>
<path d="M2620 7605 c0 -8 9 -15 20 -15 11 0 20 7 20 15 0 8 -9 15 -20 15 -11
0 -20 -7 -20 -15z"/>
<path d="M4190 7595 c0 -23 26 -65 41 -65 17 0 9 29 -16 57 -22 25 -24 26 -25
8z"/>
<path d="M2795 7590 c-8 -13 3 -30 21 -30 18 0 18 14 0 29 -10 8 -16 9 -21 1z"/>
<path d="M3058 7573 c16 -28 71 -77 79 -70 9 10 -50 81 -71 85 -14 3 -16 0 -8
-15z"/>
<path d="M2522 7563 c2 -10 10 -18 18 -18 8 0 16 8 18 18 2 12 -3 17 -18 17
-15 0 -20 -5 -18 -17z"/>
<path d="M2260 7550 c0 -5 5 -10 10 -10 6 0 10 5 10 10 0 6 -4 10 -10 10 -5 0
-10 -4 -10 -10z"/>
<path d="M2687 7543 c-11 -10 13 -33 34 -33 23 0 25 25 3 34 -20 8 -29 8 -37
-1z"/>
<path d="M4110 7540 c0 -5 5 -10 11 -10 5 0 7 5 4 10 -3 6 -8 10 -11 10 -2 0
-4 -4 -4 -10z"/>
<path d="M2150 7524 c0 -30 81 -114 109 -114 21 0 11 18 -37 69 -42 45 -72 63
-72 45z"/>
<path d="M2595 7491 c-10 -17 4 -31 31 -31 19 0 25 5 22 18 -4 19 -43 29 -53
13z"/>
<path d="M2882 7488 c2 -6 10 -14 16 -16 7 -2 10 2 6 12 -7 18 -28 22 -22 4z"/>
<path d="M4030 7492 c0 -5 7 -16 16 -23 14 -12 16 -11 13 5 -4 20 -29 35 -29
18z"/>
<path d="M3022 7469 c2 -7 10 -15 17 -17 8 -3 12 1 9 9 -2 7 -10 15 -17 17 -8
3 -12 -1 -9 -9z"/>
<path d="M2780 7441 c0 -10 30 -24 37 -17 3 3 2 9 -2 15 -8 13 -35 15 -35 2z"/>
<path d="M2492 7428 c5 -15 28 -18 29 -3 0 6 -7 12 -17 13 -10 3 -15 -1 -12
-10z"/>
<path d="M4330 7421 c0 -6 5 -13 10 -16 6 -3 10 1 10 9 0 9 -4 16 -10 16 -5 0
-10 -4 -10 -9z"/>
<path d="M2675 7400 c-7 -11 99 -120 116 -120 12 0 -14 50 -38 71 -10 9 -26
26 -35 38 -19 23 -33 27 -43 11z"/>
<path d="M2395 7391 c-6 -11 20 -33 28 -24 4 3 7 10 7 14 0 11 -29 19 -35 10z"/>
<path d="M2310 7340 c21 -38 82 -100 93 -93 6 4 1 13 -13 25 -12 10 -30 33
-39 51 -9 17 -24 33 -34 35 -16 3 -17 1 -7 -18z"/>
<path d="M2572 7338 c3 -7 13 -15 24 -17 16 -3 17 -1 5 13 -16 19 -34 21 -29
4z"/>
<path d="M3017 7320 c22 -37 121 -136 128 -128 7 7 -111 144 -131 152 -12 5
-11 0 3 -24z"/>
<path d="M4022 7338 c6 -18 28 -21 28 -4 0 9 -7 16 -16 16 -9 0 -14 -5 -12
-12z"/>
<path d="M2636 7272 c-7 -12 22 -38 31 -28 4 3 0 14 -9 22 -9 10 -18 12 -22 6z"/>
<path d="M2800 7261 c0 -21 67 -96 89 -99 21 -3 18 3 -25 52 -46 54 -64 67
-64 47z"/>
<path d="M2540 7215 c0 -10 7 -15 18 -13 21 4 19 22 -2 26 -10 2 -16 -3 -16
-13z"/>
<path d="M2710 7186 c0 -9 5 -16 10 -16 6 0 10 4 10 9 0 6 -4 13 -10 16 -5 3
-10 -1 -10 -9z"/>
<path d="M2420 7177 c0 -7 18 -31 41 -52 22 -22 49 -55 61 -73 22 -36 53 -57
63 -43 3 5 -18 36 -46 68 -28 32 -57 70 -65 86 -15 28 -54 38 -54 14z"/>
<path d="M1670 7170 c0 -5 7 -10 16 -10 8 0 12 5 9 10 -3 6 -10 10 -16 10 -5
0 -9 -4 -9 -10z"/>
<path d="M1584 7159 c-8 -14 11 -33 25 -25 6 4 11 11 11 16 0 13 -29 20 -36 9z"/>
<path d="M2600 7140 c0 -5 5 -10 10 -10 6 0 10 5 10 10 0 6 -4 10 -10 10 -5 0
-10 -4 -10 -10z"/>
<path d="M2780 7114 c0 -13 55 -99 70 -109 19 -12 24 3 7 27 -27 41 -76 93
-77 82z"/>
<path d="M3190 7110 c0 -5 15 -27 33 -47 19 -21 48 -59 66 -85 30 -46 51 -61
51 -37 0 14 -129 179 -141 179 -5 0 -9 -4 -9 -10z"/>
<path d="M2940 7089 c0 -13 111 -149 122 -149 24 0 -9 58 -71 123 -36 38 -51
46 -51 26z"/>
<path d="M2670 7060 c0 -5 5 -10 11 -10 5 0 7 5 4 10 -3 6 -8 10 -11 10 -2 0
-4 -4 -4 -10z"/>
<path d="M1640 7044 c0 -17 22 -14 28 4 2 7 -3 12 -12 12 -9 0 -16 -7 -16 -16z"/>
<path d="M2710 6994 c0 -4 21 -31 48 -60 26 -29 59 -68 74 -86 25 -30 27 -31
28 -11 0 12 -15 38 -32 57 -18 18 -42 49 -53 67 -18 30 -65 54 -65 33z"/>
<path d="M1690 6960 c0 -5 7 -10 15 -10 8 0 15 5 15 10 0 6 -7 10 -15 10 -8 0
-15 -4 -15 -10z"/>
<path d="M2610 6950 c0 -5 15 -27 34 -47 18 -21 36 -47 40 -59 10 -33 64 -80
77 -67 15 15 -15 59 -52 79 -17 8 -31 26 -35 42 -4 15 -14 35 -22 45 -16 19
-42 23 -42 7z"/>
<path d="M2920 6921 c0 -5 9 -19 20 -32 19 -23 19 -23 20 -3 0 20 -17 44 -32
44 -4 0 -8 -4 -8 -9z"/>
<path d="M1945 6910 c4 -6 11 -8 16 -5 14 9 11 15 -7 15 -8 0 -12 -5 -9 -10z"/>
<path d="M2523 6894 c-8 -21 26 -49 41 -34 7 7 7 16 0 27 -15 24 -33 27 -41 7z"/>
<path d="M1850 6890 c0 -5 7 -10 16 -10 8 0 12 5 9 10 -3 6 -10 10 -16 10 -5
0 -9 -4 -9 -10z"/>
<path d="M1741 6881 c-9 -6 2 -23 38 -61 28 -29 54 -50 58 -47 3 4 -6 18 -20
31 -15 14 -27 34 -27 45 0 24 -30 43 -49 32z"/>
<path d="M3385 6848 c4 -13 37 -72 74 -133 125 -204 168 -280 219 -380 57
-115 133 -304 158 -393 17 -63 44 -85 44 -37 0 61 -150 417 -260 615 -72 130
-217 350 -230 350 -7 0 -9 -9 -5 -22z"/>
<path d="M1990 6830 c0 -5 7 -10 15 -10 8 0 15 5 15 10 0 6 -7 10 -15 10 -8 0
-15 -4 -15 -10z"/>
<path d="M1902 6813 c2 -9 9 -18 16 -21 18 -6 15 25 -4 32 -11 4 -14 1 -12
-11z"/>
<path d="M2346 6806 c3 -9 11 -16 16 -16 13 0 5 23 -10 28 -7 2 -10 -2 -6 -12z"/>
<path d="M3000 6801 c0 -6 11 -23 25 -38 20 -23 24 -25 25 -10 0 27 -18 57
-35 57 -8 0 -15 -4 -15 -9z"/>
<path d="M2616 6781 c-9 -14 4 -41 21 -41 9 0 13 8 11 22 -3 23 -23 35 -32 19z"/>
<path d="M2147 6754 c-8 -8 1 -24 14 -24 5 0 9 7 9 15 0 15 -12 20 -23 9z"/>
<path d="M2060 6727 c0 -8 7 -21 16 -28 14 -11 15 -10 12 11 -3 26 -28 41 -28
17z"/>
<path d="M2522 6728 c3 -7 13 -15 24 -17 16 -3 17 -1 5 13 -16 19 -34 21 -29
4z"/>
<path d="M2775 6720 c-13 -21 40 -80 72 -80 23 0 14 35 -15 63 -30 28 -47 34
-57 17z"/>
<path d="M1970 6702 c0 -5 9 -20 20 -33 l20 -24 -2 30 c-2 19 -9 31 -20 33
-10 2 -18 -1 -18 -6z"/>
<path d="M2410 6695 c7 -8 21 -15 32 -15 17 0 18 3 8 15 -7 8 -21 15 -32 15
-17 0 -18 -3 -8 -15z"/>
<path d="M1855 6690 c-9 -15 14 -40 36 -40 25 0 24 26 0 40 -24 13 -28 13 -36
0z"/>
<path d="M2315 6671 c-3 -5 2 -17 11 -26 22 -21 44 -4 24 20 -14 17 -26 19
-35 6z"/>
<path d="M2700 6662 c0 -21 109 -184 128 -190 23 -7 12 23 -34 98 -67 108 -94
135 -94 92z"/>
<path d="M2207 6643 c-9 -9 22 -43 40 -43 16 0 17 22 1 38 -13 13 -31 16 -41
5z"/>
<path d="M2120 6616 c0 -16 28 -42 36 -33 3 3 3 15 -1 26 -7 23 -35 29 -35 7z"/>
<path d="M2600 6623 c0 -19 42 -74 53 -70 15 5 10 37 -10 60 -16 17 -43 23
-43 10z"/>
<path d="M2030 6597 c0 -14 31 -47 43 -47 12 0 8 35 -5 48 -16 16 -38 15 -38
-1z"/>
<path d="M2490 6591 c0 -16 41 -61 56 -61 19 0 18 35 -2 54 -16 17 -54 22 -54
7z"/>
<path d="M1947 6583 c-14 -22 60 -176 91 -188 21 -8 13 26 -13 57 -14 16 -30
49 -36 74 -11 43 -33 72 -42 57z"/>
<path d="M2390 6554 c0 -29 21 -54 45 -54 31 0 33 22 5 50 -24 24 -50 26 -50
4z"/>
<path d="M2300 6507 c0 -25 17 -47 37 -47 19 0 16 34 -5 53 -25 23 -32 21 -32
-6z"/>
<path d="M2687 6504 c-11 -11 26 -64 45 -64 24 0 23 21 -2 48 -21 23 -32 27
-43 16z"/>
<path d="M2200 6470 c0 -23 26 -38 41 -23 7 7 5 16 -6 27 -22 22 -35 20 -35
-4z"/>
<path d="M2090 6463 c0 -3 11 -21 25 -38 13 -18 35 -57 48 -88 27 -60 44 -77
53 -52 4 9 -2 29 -15 45 -11 16 -32 54 -45 84 -19 42 -30 56 -45 56 -12 0 -21
-3 -21 -7z"/>
<path d="M2580 6452 c0 -10 9 -27 21 -38 17 -15 22 -16 29 -4 6 10 4 22 -4 35
-18 27 -46 32 -46 7z"/>
<path d="M2467 6434 c-15 -16 82 -159 114 -169 11 -4 23 -5 25 -2 10 10 -26
66 -46 72 -15 5 -20 15 -20 39 0 45 -48 85 -73 60z"/>
<path d="M2860 6416 c0 -16 26 -46 41 -46 17 0 9 39 -10 50 -26 13 -31 13 -31
-4z"/>
<path d="M2360 6393 c0 -9 18 -33 40 -53 26 -24 40 -46 40 -62 0 -30 44 -119
70 -143 32 -29 35 -9 6 33 -14 21 -26 50 -26 64 0 14 -13 42 -30 63 -16 21
-30 48 -30 60 0 25 -29 55 -53 55 -9 0 -17 -7 -17 -17z"/>
<path d="M2760 6378 c0 -24 18 -41 34 -35 14 5 15 11 6 27 -12 22 -40 27 -40
8z"/>
<path d="M2286 6351 c-9 -14 4 -41 21 -41 9 0 13 8 11 22 -3 23 -23 35 -32 19z"/>
<path d="M2655 6339 c-7 -11 22 -49 37 -49 4 0 8 9 8 20 0 23 -35 46 -45 29z"/>
<path d="M2330 6230 c0 -13 37 -50 50 -50 14 0 13 33 -2 48 -15 15 -48 16 -48
2z"/>
<path d="M2730 6211 c0 -22 15 -35 30 -26 7 4 7 13 0 26 -14 25 -30 25 -30 0z"/>
<path d="M2610 6180 c0 -24 26 -38 42 -22 8 8 8 15 -2 27 -18 21 -40 19 -40
-5z"/>
<path d="M2262 6168 c6 -18 28 -21 28 -4 0 9 -7 16 -16 16 -9 0 -14 -5 -12
-12z"/>
<path d="M1198 6123 c7 -3 16 -2 19 1 4 3 -2 6 -13 5 -11 0 -14 -3 -6 -6z"/>
<path d="M2777 6123 c-8 -14 12 -53 27 -53 22 0 28 17 16 40 -11 20 -35 27
-43 13z"/>
<path d="M2412 6089 c2 -6 8 -10 13 -10 5 0 11 4 13 10 2 6 -4 11 -13 11 -9 0
-15 -5 -13 -11z"/>
<path d="M2674 6075 c-9 -21 7 -49 30 -53 23 -5 21 31 -4 53 -19 17 -20 17
-26 0z"/>
<path d="M2320 6060 c0 -5 7 -10 15 -10 8 0 15 5 15 10 0 6 -7 10 -15 10 -8 0
-15 -4 -15 -10z"/>
<path d="M2552 6023 c2 -10 14 -19 26 -21 19 -3 23 1 20 15 -2 10 -14 19 -26
21 -19 3 -23 -1 -20 -15z"/>
<path d="M2830 5998 c0 -8 29 -77 65 -153 36 -77 65 -149 65 -160 0 -31 26
-63 40 -49 13 13 -19 120 -48 164 -9 14 -22 47 -30 74 -17 65 -53 130 -75 134
-9 2 -17 -3 -17 -10z"/>
<path d="M2475 5980 c3 -5 8 -10 11 -10 2 0 4 5 4 10 0 6 -5 10 -11 10 -5 0
-7 -4 -4 -10z"/>
<path d="M2380 5950 c0 -5 5 -10 10 -10 6 0 10 5 10 10 0 6 -4 10 -10 10 -5 0
-10 -4 -10 -10z"/>
<path d="M2722 5944 c2 -11 11 -20 22 -22 13 -3 17 1 14 14 -2 11 -11 20 -22
22 -13 3 -17 -1 -14 -14z"/>
<path d="M2620 5911 c0 -24 26 -47 33 -29 5 16 -10 48 -23 48 -6 0 -10 -8 -10
-19z"/>
<path d="M2515 5890 c-3 -5 -1 -19 6 -31 10 -19 12 -20 27 -6 13 13 13 19 2
31 -14 18 -26 20 -35 6z"/>
<path d="M2786 5853 c-12 -12 -6 -43 9 -43 8 0 15 9 15 19 0 21 -13 34 -24 24z"/>
<path d="M2430 5831 c13 -25 33 -28 28 -4 -2 10 -11 19 -21 21 -16 3 -17 1 -7
-17z"/>
<path d="M2665 5810 c-7 -12 12 -50 25 -50 16 0 11 47 -5 53 -8 4 -17 2 -20
-3z"/>
<path d="M2565 5781 c-8 -14 13 -53 26 -46 13 9 11 31 -5 44 -10 8 -16 9 -21
2z"/>
<path d="M2810 5728 c0 -39 14 -51 33 -30 21 23 13 52 -14 52 -13 0 -19 -7
-19 -22z"/>
<path d="M2720 5685 c0 -9 5 -15 11 -13 6 2 11 8 11 13 0 5 -5 11 -11 13 -6 2
-11 -4 -11 -13z"/>
<path d="M2622 5651 c4 -13 18 -16 19 -4 0 4 -5 9 -11 12 -7 2 -11 -2 -8 -8z"/>
<path d="M2847 5628 c23 -40 43 -47 43 -16 0 29 -17 48 -43 48 -18 0 -18 -1 0
-32z"/>
<path d="M2520 5626 c0 -8 5 -18 10 -21 6 -3 10 1 10 9 0 8 -4 18 -10 21 -5 3
-10 -1 -10 -9z"/>
<path d="M2760 5571 c0 -10 7 -32 15 -47 8 -16 15 -39 15 -51 0 -27 18 -39 33
-24 9 9 7 21 -9 49 -12 20 -24 49 -28 65 -7 31 -26 37 -26 8z"/>
<path d="M1815 5560 c-22 -25 -18 -30 18 -23 18 4 27 12 27 24 0 25 -22 24
-45 -1z"/>
<path d="M2650 5547 c0 -8 7 -18 16 -21 11 -4 14 -1 12 11 -4 21 -28 30 -28
10z"/>
<path d="M2560 5505 c0 -8 7 -15 15 -15 8 0 15 7 15 15 0 8 -7 15 -15 15 -8 0
-15 -7 -15 -15z"/>
<path d="M2476 5482 c-3 -6 -1 -14 5 -17 15 -10 25 3 12 16 -7 7 -13 7 -17 1z"/>
<path d="M2700 5446 c0 -9 5 -16 10 -16 6 0 10 4 10 9 0 6 -4 13 -10 16 -5 3
-10 -1 -10 -9z"/>
<path d="M2500 5387 c0 -33 27 -56 36 -32 8 19 -5 46 -24 53 -7 2 -12 -6 -12
-21z"/>
<path d="M2312 5355 c2 -38 7 -51 21 -53 23 -5 22 19 -3 66 l-21 37 3 -50z"/>
<path d="M2820 5365 c0 -8 7 -15 15 -15 8 0 15 7 15 15 0 8 -7 15 -15 15 -8 0
-15 -7 -15 -15z"/>
<path d="M2410 5345 c0 -8 5 -15 10 -15 6 0 10 7 10 15 0 8 -4 15 -10 15 -5 0
-10 -7 -10 -15z"/>
<path d="M2760 5205 c0 -14 5 -25 10 -25 6 0 10 11 10 25 0 14 -4 25 -10 25
-5 0 -10 -11 -10 -25z"/>
<path d="M1466 4944 c-3 -9 -6 -23 -6 -32 0 -21 15 -5 25 26 7 25 -9 31 -19 6z"/>
<path d="M1214 4873 c-19 -43 -38 -90 -41 -106 -9 -46 23 -22 53 39 25 51 44
144 30 144 -4 0 -22 -35 -42 -77z"/>
<path d="M1357 4932 c-26 -28 -78 -152 -75 -176 3 -20 4 -20 29 6 14 15 33 55
43 90 10 35 25 71 33 81 14 15 14 17 1 17 -8 0 -22 -8 -31 -18z"/>
<path d="M1430 4824 c-5 -16 -15 -37 -21 -47 -6 -11 -8 -21 -5 -25 3 -3 15 16
27 42 11 26 18 50 15 53 -3 3 -10 -7 -16 -23z"/>
<path d="M1598 4815 c-20 -26 -23 -45 -8 -45 12 0 32 38 28 55 -2 9 -9 6 -20
-10z"/>
<path d="M1510 4784 c0 -8 5 -12 10 -9 6 3 10 10 10 16 0 5 -4 9 -10 9 -5 0
-10 -7 -10 -16z"/>
<path d="M3462 10450 c-58 -14 -47 -20 34 -20 139 0 319 -57 439 -140 26 -18
49 -30 51 -27 11 11 -77 70 -171 117 -148 73 -252 94 -353 70z"/>
<path d="M3590 9523 c-30 -15 -49 -28 -43 -30 12 -4 113 43 113 52 0 10 -17 4
-70 -22z"/>
<path d="M4055 9145 c-37 -39 -72 -105 -81 -155 -4 -19 -4 -33 -1 -30 13 12
147 205 147 212 0 19 -35 5 -65 -27z"/>
<path d="M5035 8410 c-4 -17 -5 -34 -2 -36 3 -3 8 9 12 26 4 17 5 34 2 36 -3
3 -8 -9 -12 -26z"/>
<path d="M810 8260 c0 -19 9 -57 20 -85 10 -27 22 -68 26 -90 5 -26 9 -33 11
-19 5 26 -34 205 -47 218 -7 7 -10 -1 -10 -24z"/>
<path d="M896 8208 c4 -24 13 -61 20 -83 10 -35 12 -36 13 -13 1 38 -19 127
-30 134 -6 3 -7 -11 -3 -38z"/>
<path d="M760 8151 c0 -57 27 -190 41 -205 13 -14 11 22 -7 138 -18 115 -34
147 -34 67z"/>
<path d="M635 7968 c-4 -10 0 -51 10 -93 15 -68 28 -95 41 -82 7 7 -15 126
-31 162 -10 25 -14 27 -20 13z"/>
<path d="M537 7734 c-17 -17 4 -104 25 -104 13 0 9 74 -5 94 -7 9 -16 14 -20
10z"/>
<path d="M997 7673 c-13 -12 -7 -23 13 -23 11 0 20 7 20 15 0 15 -21 21 -33 8z"/>
<path d="M480 7605 c-10 -12 -10 -15 3 -15 19 0 31 16 18 24 -5 3 -14 -1 -21
-9z"/>
<path d="M1050 7250 c0 -5 4 -10 9 -10 6 0 13 5 16 10 3 6 -1 10 -9 10 -9 0
-16 -4 -16 -10z"/>
<path d="M1316 6640 c4 -19 11 -46 17 -60 8 -20 11 -21 14 -8 2 9 -5 36 -16
60 l-21 43 6 -35z"/>
<path d="M5550 5322 c0 -13 21 -82 46 -155 61 -176 110 -326 178 -538 31 -97
63 -185 71 -195 14 -18 14 -18 15 9 0 54 -246 785 -296 877 l-13 25 -1 -23z"/>
<path d="M4261 5251 c-16 -10 -7 -48 45 -186 12 -33 25 -70 28 -82 4 -11 13
-27 21 -33 30 -25 28 22 -6 143 -35 125 -62 175 -88 158z"/>
<path d="M4507 5153 c-6 -12 13 -73 23 -73 17 0 20 17 9 49 -11 30 -23 39 -32
24z"/>
<path d="M4104 5008 c4 -13 11 -50 17 -82 14 -84 38 -120 52 -81 7 17 -17 114
-38 156 -18 34 -40 40 -31 7z"/>
<path d="M4552 4998 c6 -18 28 -21 28 -4 0 9 -7 16 -16 16 -9 0 -14 -5 -12
-12z"/>
<path d="M4377 4884 c-13 -14 -7 -65 9 -71 24 -9 38 11 27 43 -10 29 -24 40
-36 28z"/>
<path d="M4035 4859 c-7 -19 17 -141 39 -194 26 -61 40 -32 21 46 -8 35 -15
76 -15 90 0 15 -9 37 -19 50 -17 20 -20 22 -26 8z"/>
<path d="M4600 4851 c0 -11 5 -23 10 -26 6 -3 10 3 10 14 0 11 -4 23 -10 26
-5 3 -10 -3 -10 -14z"/>
<path d="M4280 4801 c0 -23 25 -47 35 -31 10 16 -4 50 -21 50 -8 0 -14 -8 -14
-19z"/>
<path d="M4514 4797 c-7 -20 1 -47 16 -47 12 0 13 30 0 50 -8 12 -10 12 -16
-3z"/>
<path d="M3940 4763 c0 -33 36 -151 52 -170 31 -38 26 14 -13 135 -22 65 -39
81 -39 35z"/>
<path d="M4164 4756 c-7 -19 13 -56 31 -56 18 0 20 41 3 58 -16 16 -27 15 -34
-2z"/>
<path d="M4742 4720 c0 -67 9 -102 27 -108 11 -4 13 6 7 48 -4 29 -13 67 -21
84 -13 31 -13 31 -13 -24z"/>
<path d="M4412 4708 c2 -21 8 -33 18 -33 19 0 25 32 10 50 -20 24 -31 17 -28
-17z"/>
<path d="M4637 4705 c-4 -8 -2 -17 3 -20 6 -4 10 3 10 14 0 25 -6 27 -13 6z"/>
<path d="M4310 4631 c0 -33 16 -49 32 -33 14 14 1 62 -17 62 -10 0 -15 -10
-15 -29z"/>
<path d="M3573 4610 c-27 -11 -30 -30 -5 -30 19 0 42 18 42 32 0 10 -9 9 -37
-2z"/>
<path d="M4660 4593 c0 -10 4 -24 9 -32 12 -19 24 3 16 29 -8 25 -25 26 -25 3z"/>
<path d="M4200 4590 c0 -20 24 -60 37 -60 16 0 17 42 1 58 -14 14 -38 16 -38
2z"/>
<path d="M4432 4568 c5 -15 37 -18 41 -3 1 6 -9 12 -22 13 -16 3 -22 -1 -19
-10z"/>
<path d="M4120 4521 c0 -6 5 -13 10 -16 6 -3 10 1 10 9 0 9 -4 16 -10 16 -5 0
-10 -4 -10 -9z"/>
<path d="M4796 4475 c8 -89 41 -275 70 -400 14 -60 43 -212 64 -338 22 -125
44 -235 50 -245 9 -14 10 -11 6 13 -3 17 -22 138 -41 270 -40 272 -120 685
-141 730 -13 28 -14 27 -8 -30z"/>
<path d="M4340 4490 c0 -5 4 -10 9 -10 6 0 13 5 16 10 3 6 -1 10 -9 10 -9 0
-16 -4 -16 -10z"/>
<path d="M4002 4459 c3 -24 33 -48 44 -36 4 4 2 18 -4 32 -14 31 -45 34 -40 4z"/>
<path d="M4460 4436 c0 -8 6 -16 13 -19 19 -7 41 8 33 22 -10 16 -46 14 -46
-3z"/>
<path d="M4690 4446 c0 -3 6 -23 14 -43 8 -21 19 -81 25 -133 14 -118 84 -481
88 -459 11 50 -94 630 -114 637 -7 2 -13 1 -13 -2z"/>
<path d="M4246 4432 c-3 -6 -1 -14 5 -17 15 -10 25 3 12 16 -7 7 -13 7 -17 1z"/>
<path d="M3576 4401 c-9 -10 -31 -21 -47 -25 -17 -3 -28 -10 -24 -16 10 -17
105 29 105 51 0 15 -16 10 -34 -10z"/>
<path d="M4363 4374 c-8 -21 13 -42 28 -27 13 13 5 43 -11 43 -6 0 -13 -7 -17
-16z"/>
<path d="M4135 4359 c-4 -6 -4 -13 -1 -16 8 -8 36 5 36 17 0 13 -27 13 -35 -1z"/>
<path d="M3115 4350 c-4 -6 7 -10 24 -10 17 0 31 5 31 10 0 6 -11 10 -24 10
-14 0 -28 -4 -31 -10z"/>
<path d="M5890 4298 c0 -43 8 -68 22 -68 13 0 4 78 -11 93 -8 8 -11 1 -11 -25z"/>
<path d="M2983 4303 c-18 -7 -16 -33 3 -33 21 0 54 18 54 30 0 10 -36 12 -57
3z"/>
<path d="M4940 4267 c0 -9 11 -71 25 -137 14 -66 43 -226 65 -355 41 -243 57
-315 72 -315 13 0 10 40 -12 152 -10 57 -35 200 -55 319 -37 228 -58 315 -81
339 -12 12 -14 12 -14 -3z"/>
<path d="M4390 4241 c0 -11 5 -23 11 -27 14 -8 29 14 22 33 -8 20 -33 16 -33
-6z"/>
<path d="M4641 4205 c-1 -27 21 -187 48 -355 28 -168 53 -326 56 -352 4 -26
13 -55 21 -65 12 -16 13 -15 14 17 0 36 -114 723 -130 775 -7 27 -8 25 -9 -20z"/>
<path d="M4170 4224 c0 -9 5 -14 12 -12 18 6 21 28 4 28 -9 0 -16 -7 -16 -16z"/>
<path d="M3250 4215 c-10 -12 -9 -16 4 -21 24 -9 66 4 66 21 0 20 -53 20 -70
0z"/>
<path d="M4302 4169 c1 -13 8 -23 13 -21 15 3 12 35 -3 40 -9 3 -13 -3 -10
-19z"/>
<path d="M4527 4183 c-13 -12 -7 -33 8 -33 8 0 15 9 15 20 0 20 -11 26 -23 13z"/>
<path d="M4070 4165 c0 -9 5 -15 11 -13 6 2 11 8 11 13 0 5 -5 11 -11 13 -6 2
-11 -4 -11 -13z"/>
<path d="M3138 4162 c-10 -2 -18 -8 -18 -13 0 -12 47 -12 54 0 7 11 -13 19
-36 13z"/>
<path d="M2800 4120 c0 -5 6 -10 14 -10 8 0 18 5 21 10 3 6 -3 10 -14 10 -12
0 -21 -4 -21 -10z"/>
<path d="M5947 4124 c-13 -13 -7 -41 13 -65 l19 -24 0 25 c0 30 -22 74 -32 64z"/>
<path d="M4425 4110 c-7 -12 2 -30 16 -30 12 0 12 27 0 35 -5 3 -12 1 -16 -5z"/>
<path d="M4190 4090 c0 -11 7 -20 15 -20 8 0 15 9 15 20 0 11 -7 20 -15 20 -8
0 -15 -9 -15 -20z"/>
<path d="M3960 4085 c0 -8 5 -15 10 -15 6 0 10 7 10 15 0 8 -4 15 -10 15 -5 0
-10 -7 -10 -15z"/>
<path d="M2956 4081 c-3 -5 1 -11 9 -15 18 -6 45 2 45 15 0 12 -47 12 -54 0z"/>
<path d="M4553 3998 c8 -82 36 -217 50 -243 11 -18 12 -17 15 13 7 69 -40 292
-61 292 -6 0 -8 -23 -4 -62z"/>
<path d="M3118 4043 c7 -3 16 -2 19 1 4 3 -2 6 -13 5 -11 0 -14 -3 -6 -6z"/>
<path d="M4095 4030 c-8 -13 4 -32 16 -25 12 8 12 35 0 35 -6 0 -13 -4 -16
-10z"/>
<path d="M4330 4020 c0 -11 5 -20 10 -20 6 0 10 9 10 20 0 11 -4 20 -10 20 -5
0 -10 -9 -10 -20z"/>
<path d="M3197 3995 c-32 -22 -48 -45 -32 -45 14 0 62 30 79 49 27 30 0 28
-47 -4z"/>
<path d="M5750 3974 c0 -17 7 -53 15 -80 9 -27 22 -92 30 -145 15 -102 32
-152 49 -146 15 6 13 22 -34 206 -44 176 -59 218 -60 165z"/>
<path d="M2357 3937 c26 -29 69 -89 95 -133 46 -81 141 -194 161 -194 6 0 21
-10 34 -22 l23 -21 0 29 c0 67 -52 196 -112 280 -20 29 -29 51 -26 70 3 27 0
29 -42 36 -25 3 -76 7 -114 7 l-68 1 49 -53z m248 -247 c8 -24 -1 -40 -21 -40
-17 0 -28 24 -20 45 8 22 34 18 41 -5z"/>
<path d="M4460 3969 c0 -11 5 -17 10 -14 6 3 10 13 10 21 0 8 -4 14 -10 14 -5
0 -10 -9 -10 -21z"/>
<path d="M3990 3961 c0 -6 5 -13 10 -16 6 -3 10 1 10 9 0 9 -4 16 -10 16 -5 0
-10 -4 -10 -9z"/>
<path d="M4215 3960 c-8 -13 4 -32 16 -25 12 8 12 35 0 35 -6 0 -13 -4 -16
-10z"/>
<path d="M5980 3958 c0 -18 38 -78 49 -78 5 0 -2 20 -16 45 -26 47 -33 54 -33
33z"/>
<path d="M4355 3899 c-4 -6 -3 -15 3 -21 6 -6 11 -4 15 6 7 18 -9 31 -18 15z"/>
<path d="M4121 3874 c0 -11 3 -14 6 -6 3 7 2 16 -1 19 -3 4 -6 -2 -5 -13z"/>
<path d="M4475 3869 c-7 -19 21 -179 34 -192 24 -24 4 172 -20 197 -5 6 -11 4
-14 -5z"/>
<path d="M6060 3852 c0 -12 53 -84 74 -101 15 -12 14 -7 -5 30 -12 24 -29 52
-37 62 -16 18 -32 23 -32 9z"/>
<path d="M4010 3809 c0 -24 23 -21 28 4 2 10 -3 17 -12 17 -10 0 -16 -9 -16
-21z"/>
<path d="M4367 3794 c-10 -11 -8 -44 2 -44 6 0 13 4 16 10 8 12 -9 43 -18 34z"/>
<path d="M5915 3761 c-3 -5 -1 -12 5 -16 5 -3 10 1 10 9 0 18 -6 21 -15 7z"/>
<path d="M4135 3749 c-10 -15 3 -25 16 -12 7 7 7 13 1 17 -6 3 -14 1 -17 -5z"/>
<path d="M3150 3700 c-6 -12 -10 -33 -8 -48 l3 -27 18 32 c19 35 22 63 7 63
-5 0 -14 -9 -20 -20z"/>
<path d="M4260 3684 c0 -8 5 -12 10 -9 6 3 10 10 10 16 0 5 -4 9 -10 9 -5 0
-10 -7 -10 -16z"/>
<path d="M4030 3669 c0 -5 5 -7 10 -4 6 3 10 8 10 11 0 2 -4 4 -10 4 -5 0 -10
-5 -10 -11z"/>
<path d="M4384 3657 c-7 -20 -2 -47 11 -50 14 -3 19 43 6 56 -7 7 -12 6 -17
-6z"/>
<path d="M5940 3636 c0 -27 12 -46 30 -46 20 0 36 33 25 50 -10 15 -55 12 -55
-4z"/>
<path d="M6210 3635 c0 -8 4 -15 10 -15 5 0 7 7 4 15 -4 8 -8 15 -10 15 -2 0
-4 -7 -4 -15z"/>
<path d="M6090 3627 c0 -8 7 -21 16 -28 14 -11 15 -10 12 11 -3 26 -28 41 -28
17z"/>
<path d="M6330 3611 c0 -5 5 -13 10 -16 6 -3 10 -2 10 4 0 5 -4 13 -10 16 -5
3 -10 2 -10 -4z"/>
<path d="M4630 3571 c0 -23 5 -41 10 -41 6 0 10 15 10 34 0 19 -4 38 -10 41
-6 4 -10 -10 -10 -34z"/>
<path d="M4264 3576 c-9 -23 0 -51 16 -51 10 0 15 10 15 29 0 32 -21 47 -31
22z"/>
<path d="M4520 3544 c0 -8 5 -12 10 -9 6 3 10 10 10 16 0 5 -4 9 -10 9 -5 0
-10 -7 -10 -16z"/>
<path d="M3072 3485 c-17 -37 -14 -45 4 -12 9 16 14 31 11 33 -2 2 -9 -7 -15
-21z"/>
<path d="M6150 3501 c0 -5 5 -13 10 -16 6 -3 10 -2 10 4 0 5 -4 13 -10 16 -5
3 -10 2 -10 -4z"/>
<path d="M6410 3490 c0 -16 50 -83 57 -77 6 7 -23 61 -41 76 -13 11 -16 11
-16 1z"/>
<path d="M4410 3465 c0 -14 5 -25 10 -25 6 0 10 11 10 25 0 14 -4 25 -10 25
-5 0 -10 -11 -10 -25z"/>
<path d="M5850 3481 c0 -6 5 -13 10 -16 6 -3 10 1 10 9 0 9 -4 16 -10 16 -5 0
-10 -4 -10 -9z"/>
<path d="M4294 3425 c-13 -20 -14 -29 -5 -38 13 -13 38 7 43 37 5 29 -19 30
-38 1z"/>
<path d="M4651 3405 c0 -35 2 -37 11 -19 7 15 7 28 -1 40 -9 16 -10 12 -10
-21z"/>
<path d="M5362 3408 c2 -18 8 -33 13 -33 6 0 11 15 13 33 3 24 -1 32 -13 32
-12 0 -16 -8 -13 -32z"/>
<path d="M5490 3427 c0 -7 7 -23 16 -36 14 -19 15 -29 5 -61 -14 -49 -14 -50
8 -50 34 0 41 54 15 120 -15 37 -44 56 -44 27z"/>
<path d="M4044 3415 c-7 -17 4 -37 17 -30 12 8 12 45 -1 45 -6 0 -13 -7 -16
-15z"/>
<path d="M2966 3255 c-85 -185 -158 -373 -231 -595 -64 -194 -85 -242 -115
-263 -20 -14 -71 -134 -86 -201 -4 -17 -25 -62 -47 -99 -30 -51 -45 -67 -58
-64 -10 3 -20 -2 -23 -10 -5 -11 -2 -13 9 -9 28 10 28 -21 1 -122 -30 -114
-31 -122 -12 -122 24 0 55 49 61 98 10 69 42 180 60 209 26 39 40 15 26 -41
-13 -55 -14 -123 -1 -131 19 -11 38 42 43 120 6 82 23 149 37 140 4 -3 10 -32
12 -65 2 -33 8 -63 12 -67 14 -14 36 30 36 69 0 31 7 45 30 67 46 41 72 120
75 224 1 49 7 93 13 99 6 6 8 23 5 38 -10 52 59 238 212 575 96 210 117 267
104 280 -17 17 -45 -31 -110 -190 -127 -307 -151 -360 -171 -380 l-20 -20 5
41 c2 22 28 96 57 165 58 134 152 391 146 396 -2 2 -33 -62 -70 -142z"/>
<path d="M5225 3390 c-11 -18 5 -30 38 -30 l32 1 -24 19 c-26 22 -37 25 -46
10z"/>
<path d="M4530 3375 c-10 -12 -10 -24 -1 -58 6 -23 12 -62 13 -86 2 -25 8 -46
14 -48 13 -4 7 186 -6 200 -4 4 -13 1 -20 -8z"/>
<path d="M4875 3381 c-8 -14 6 -91 16 -91 12 0 11 87 0 95 -5 3 -12 1 -16 -4z"/>
<path d="M5105 3370 c-3 -11 -3 -30 1 -42 l7 -22 18 23 c11 13 19 32 19 42 0
26 -37 25 -45 -1z"/>
<path d="M4174 3356 c-9 -24 12 -44 28 -28 10 10 8 16 -5 29 -15 15 -17 15
-23 -1z"/>
<path d="M5880 3346 c0 -27 16 -44 23 -24 5 18 -3 48 -14 48 -5 0 -9 -11 -9
-24z"/>
<path d="M5760 3338 c0 -16 5 -28 10 -28 13 0 13 20 0 40 -8 12 -10 9 -10 -12z"/>
<path d="M4990 3323 c0 -5 4 -14 9 -22 11 -17 32 -5 24 14 -5 15 -33 21 -33 8z"/>
<path d="M4763 3257 c3 -34 12 -76 19 -92 12 -29 13 -28 16 36 3 69 -9 119
-29 119 -9 0 -10 -18 -6 -63z"/>
<path d="M5630 3299 c0 -24 23 -21 28 4 2 10 -3 17 -12 17 -10 0 -16 -9 -16
-21z"/>
<path d="M4294 3278 c-9 -27 -8 -299 1 -328 8 -24 30 -26 39 -4 10 27 7 179
-5 213 -9 25 -8 39 5 71 8 22 13 46 10 55 -9 23 -42 18 -50 -7z"/>
<path d="M5397 3294 c-4 -4 -7 -17 -7 -28 0 -19 1 -19 17 -3 12 11 14 20 7 27
-6 6 -13 7 -17 4z"/>
<path d="M4047 3274 c-4 -4 -7 -18 -7 -31 0 -18 5 -24 18 -21 10 2 17 12 17
27 0 24 -15 37 -28 25z"/>
<path d="M3825 3260 c-8 -13 4 -32 16 -25 12 8 12 35 0 35 -6 0 -13 -4 -16
-10z"/>
<path d="M5255 3260 c-3 -5 -1 -10 4 -10 6 0 11 5 11 10 0 6 -2 10 -4 10 -3 0
-8 -4 -11 -10z"/>
<path d="M7159 3240 c24 -21 41 -26 41 -12 0 15 -24 32 -44 32 -20 -1 -20 -1
3 -20z"/>
<path d="M3697 3193 c-13 -12 -7 -23 13 -23 11 0 20 7 20 15 0 15 -21 21 -33
8z"/>
<path d="M4894 3146 c-8 -22 3 -33 18 -18 9 9 9 15 0 24 -9 9 -13 7 -18 -6z"/>
<path d="M4424 3125 c-7 -28 7 -77 24 -83 8 -2 12 8 12 30 0 69 -23 104 -36
53z"/>
<path d="M4050 3115 c-7 -8 -9 -22 -6 -31 5 -13 9 -14 21 -4 17 14 20 36 6 44
-5 3 -14 -1 -21 -9z"/>
<path d="M3835 3109 c-10 -15 3 -25 16 -12 7 7 7 13 1 17 -6 3 -14 1 -17 -5z"/>
<path d="M4560 3073 c0 -46 8 -73 21 -73 10 0 1 77 -12 100 -6 10 -8 1 -9 -27z"/>
<path d="M4176 3033 c-9 -59 -7 -161 4 -168 16 -10 30 41 30 110 0 65 -6 95
-20 95 -4 0 -10 -17 -14 -37z"/>
<path d="M3690 3035 c0 -22 4 -26 23 -23 14 2 22 10 22 23 0 13 -8 21 -22 23
-19 3 -23 -1 -23 -23z"/>
<path d="M3956 3042 c-3 -6 -1 -14 5 -17 15 -10 25 3 12 16 -7 7 -13 7 -17 1z"/>
<path d="M3054 3004 c-4 -10 -20 -48 -36 -83 -15 -35 -27 -66 -25 -68 2 -2 21
33 41 78 21 44 35 83 32 86 -3 3 -9 -3 -12 -13z"/>
<path d="M4050 2963 c-1 -5 -5 -39 -10 -77 -9 -73 -6 -96 15 -96 8 0 15 20 19
54 8 58 -1 126 -15 126 -5 0 -9 -3 -9 -7z"/>
<path d="M3817 2954 c-8 -8 1 -24 14 -24 5 0 9 7 9 15 0 15 -12 20 -23 9z"/>
<path d="M4430 2920 c0 -5 4 -10 9 -10 6 0 13 5 16 10 3 6 -1 10 -9 10 -9 0
-16 -4 -16 -10z"/>
<path d="M4293 2855 c-3 -9 -3 -18 0 -21 9 -9 27 6 27 22 0 19 -19 18 -27 -1z"/>
<path d="M2470 2833 c0 -44 -17 -85 -43 -105 -17 -13 -22 -27 -21 -63 2 -88
55 -100 82 -19 16 45 11 189 -7 207 -8 8 -11 2 -11 -20z"/>
<path d="M3810 2829 c-11 -20 1 -49 21 -49 14 0 29 37 23 54 -9 22 -31 20 -44
-5z"/>
<path d="M3565 2809 c-4 -6 -4 -13 -1 -16 8 -8 36 5 36 17 0 13 -27 13 -35 -1z"/>
<path d="M3807 2693 c-4 -3 -7 -24 -7 -45 0 -47 20 -48 32 -2 11 42 -3 69 -25
47z"/>
<path d="M3560 2665 c0 -18 5 -25 20 -25 21 0 24 8 14 34 -10 25 -34 19 -34
-9z"/>
<path d="M3450 2595 c0 -14 5 -25 10 -25 6 0 10 11 10 25 0 14 -4 25 -10 25
-5 0 -10 -11 -10 -25z"/>
<path d="M3340 2546 c-13 -17 -7 -46 9 -46 14 0 25 40 14 51 -6 6 -15 4 -23
-5z"/>
<path d="M3565 2530 c-3 -5 -1 -10 4 -10 6 0 11 5 11 10 0 6 -2 10 -4 10 -3 0
-8 -4 -11 -10z"/>
<path d="M3560 2396 c0 -8 5 -18 10 -21 6 -3 10 3 10 14 0 12 -4 21 -10 21 -5
0 -10 -6 -10 -14z"/>
<path d="M3323 2384 c-8 -21 13 -42 28 -27 13 13 5 43 -11 43 -6 0 -13 -7 -17
-16z"/>
<path d="M3180 2275 c0 -8 7 -15 15 -15 8 0 15 7 15 15 0 8 -7 15 -15 15 -8 0
-15 -7 -15 -15z"/>
<path d="M5170 2073 c-117 -12 -336 -48 -416 -68 -113 -29 -230 -79 -540 -233
-132 -65 -285 -137 -342 -161 -107 -45 -140 -68 -81 -56 19 4 95 27 169 52 74
24 176 55 225 69 90 24 175 32 175 15 0 -15 -115 -61 -360 -142 -242 -79 -315
-94 -326 -64 -4 8 -16 15 -27 15 -12 0 -179 -32 -373 -70 -433 -86 -571 -98
-551 -48 3 10 27 17 74 21 38 3 85 12 104 20 l34 15 -65 1 c-134 1 -327 -50
-436 -114 -116 -69 -177 -162 -259 -395 -56 -161 -58 -165 -141 -288 -76 -112
-177 -309 -168 -324 5 -7 12 -4 20 8 85 120 133 181 203 259 103 115 174 224
271 413 95 186 110 202 208 221 33 6 140 16 239 21 269 14 491 51 713 120 52
16 147 42 210 59 118 31 380 119 550 186 52 20 120 46 150 58 44 16 365 178
665 335 105 55 153 72 210 75 46 2 42 3 -20 4 -44 0 -96 -2 -115 -4z m-606
-272 c13 -20 -109 -90 -126 -73 -16 16 0 32 56 58 57 27 62 28 70 15z m-1349
-451 c9 -15 -40 -30 -101 -30 -40 0 -55 4 -52 13 8 21 141 36 153 17z"/>
<path d="M2341 1929 c-50 -30 -68 -56 -91 -128 -33 -105 -23 -175 20 -136 38
34 119 242 108 276 -2 5 -18 0 -37 -12z"/>
<path d="M1783 1544 c-7 -18 0 -56 28 -154 30 -105 29 -340 -1 -340 -5 0 -11
30 -14 68 -8 92 -31 201 -52 248 l-17 39 -11 -35 c-6 -19 -18 -46 -28 -60 -12
-19 -18 -61 -23 -180 -12 -294 -54 -546 -110 -664 -28 -58 -32 -96 -12 -96 19
0 39 24 112 135 71 109 124 248 150 396 8 47 22 103 31 125 33 78 29 390 -7
493 -12 34 -37 48 -46 25z"/>
<path d="M1933 1220 c0 -41 2 -58 4 -37 2 20 2 54 0 75 -2 20 -4 3 -4 -38z"/>
</g>
</svg>
